<svg id="air-conditioner" xmlns="http://www.w3.org/2000/svg" width="27" height="27" viewBox="7 0 3 17">
  <path id="Path_793" data-name="Path 793" d="M16.869,8H5.124A1.125,1.125,0,0,0,4,9.124v4.421a1.125,1.125,0,0,0,1.124,1.124H16.872A1.125,1.125,0,0,0,18,13.545V9.124A1.129,1.129,0,0,0,16.869,8Zm.347,5.545a.344.344,0,0,1-.344.344H5.124a.344.344,0,0,1-.344-.344V9.124a.344.344,0,0,1,.344-.344H16.872a.344.344,0,0,1,.344.344Z" transform="translate(-4 -8)" fill="#cecece"/>
  <path id="Path_794" data-name="Path 794" d="M17.606,16.806H7.4a.388.388,0,0,0,0,.777H17.608a.388.388,0,1,0,0-.777Z" transform="translate(-5.505 -12.404)" fill="#cecece"/>
  <path id="Path_795" data-name="Path 795" d="M27.892,10.9a.388.388,0,0,0-.388.388v.129a.388.388,0,1,0,.777,0v-.129A.388.388,0,0,0,27.892,10.9Z" transform="translate(-15.755 -9.45)" fill="#cecece"/>
  <path id="Path_796" data-name="Path 796" d="M27.892,13.841a.388.388,0,0,0-.388.388v.129a.388.388,0,1,0,.777,0V14.23A.39.39,0,0,0,27.892,13.841Z" transform="translate(-15.755 -10.921)" fill="#cecece"/>
  <path id="Path_797" data-name="Path 797" d="M9.008,22.52a.387.387,0,0,0-.471.284l-.289,1.151a.386.386,0,0,0,.284.471A.392.392,0,0,0,9,24.143l.289-1.151A.389.389,0,0,0,9.008,22.52Z" transform="translate(-6.119 -15.256)" fill="#cecece"/>
  <path id="Path_798" data-name="Path 798" d="M14.742,23.428a.385.385,0,0,0-.419.355l-.1,1.185a.384.384,0,0,0,.355.419A.392.392,0,0,0,15,25.032l.1-1.185A.388.388,0,0,0,14.742,23.428Z" transform="translate(-9.114 -15.715)" fill="#cecece"/>
  <path id="Path_799" data-name="Path 799" d="M26.678,23.956,26.389,22.8a.389.389,0,1,0-.755.187l.289,1.151a.393.393,0,0,0,.471.284A.388.388,0,0,0,26.678,23.956Z" transform="translate(-14.814 -15.257)" fill="#cecece"/>
  <path id="Path_800" data-name="Path 800" d="M20.894,24.968l-.1-1.185a.388.388,0,1,0-.774.063l.1,1.185a.393.393,0,0,0,.419.355A.385.385,0,0,0,20.894,24.968Z" transform="translate(-12.013 -15.715)" fill="#cecece"/>
</svg>
