<svg id="calendar" xmlns="http://www.w3.org/2000/svg" width="27" height="27" viewBox="7 0 3 17">
  <path id="Path_1100" data-name="Path 1100" d="M9.774,52.787H1.265A1.266,1.266,0,0,1,0,51.522V43.933a1.266,1.266,0,0,1,1.265-1.265H9.774a1.266,1.266,0,0,1,1.265,1.265v7.589A1.266,1.266,0,0,1,9.774,52.787ZM1.265,43.358a.576.576,0,0,0-.575.575v7.589a.576.576,0,0,0,.575.575H9.774a.576.576,0,0,0,.575-.575V43.933a.576.576,0,0,0-.575-.575Zm0,0" transform="translate(0 -41.748)" fill="#9b9b9b"/>
  <path id="Path_1101" data-name="Path 1101" d="M10.694,171.358H.345a.345.345,0,0,1,0-.69H10.694a.345.345,0,0,1,0,.69Zm0,0" transform="translate(0 -166.988)" fill="#9b9b9b"/>
  <path id="Path_1102" data-name="Path 1102" d="M107.013,2.76a.345.345,0,0,1-.345-.345V.345a.345.345,0,0,1,.69,0v2.07A.345.345,0,0,1,107.013,2.76Zm0,0" transform="translate(-104.368)" fill="#9b9b9b"/>
  <path id="Path_1103" data-name="Path 1103" d="M373.677,2.76a.345.345,0,0,1-.345-.345V.345a.345.345,0,0,1,.69,0v2.07A.345.345,0,0,1,373.677,2.76Zm0,0" transform="translate(-365.283)" fill="#9b9b9b"/>
</svg>
