<svg id="Group_3379" data-name="Group 3379" xmlns="http://www.w3.org/2000/svg" width="27" height="27" viewBox="7 0 3 17">
  <path id="Path_1311" data-name="Path 1311" d="M5.5,11.005A5.5,5.5,0,1,0,0,5.5,5.509,5.509,0,0,0,5.5,11.005ZM5.5.734A4.769,4.769,0,1,1,.734,5.5,4.774,4.774,0,0,1,5.5.734Z" fill="#9b9b9b"/>
  <path id="Path_1312" data-name="Path 1312" d="M169.639,76.913a.366.366,0,0,0,.515-.057.367.367,0,0,0-.057-.515l-1.7-1.357V72.225a.367.367,0,1,0-.734,0V75.16a.368.368,0,0,0,.138.286Z" transform="translate(-162.531 -69.657)" fill="#9b9b9b"/>
</svg>
