<svg id="fax-machine" xmlns="http://www.w3.org/2000/svg" width="27" height="27" viewBox="7 0 3 17">
  <g id="Group_1761" data-name="Group 1761" transform="translate(0 0)">
    <path id="Path_810" data-name="Path 810" d="M6.5,10.466a.878.878,0,0,1,.878-.878h1a.878.878,0,0,1,.878.878v1.881h7.649a.878.878,0,0,1,.878.878v6.019a.878.878,0,0,1-.878.878H5.878A.878.878,0,0,1,5,19.244V13.225a.878.878,0,0,1,.878-.878H6.5Zm0,2.633H5.878a.125.125,0,0,0-.125.125v6.019a.125.125,0,0,0,.125.125H16.912a.125.125,0,0,0,.125-.125V13.225a.125.125,0,0,0-.125-.125H9.263v4.64a.878.878,0,0,1-.878.878h-1a.878.878,0,0,1-.878-.878Zm.878-2.759a.125.125,0,0,0-.125.125v7.273a.125.125,0,0,0,.125.125h1a.125.125,0,0,0,.125-.125V10.466a.125.125,0,0,0-.125-.125Z" transform="translate(-5 -7.331)" fill="#cecece" fill-rule="evenodd"/>
    <path id="Path_811" data-name="Path 811" d="M16.074,5.752a.125.125,0,0,0-.125.125V9.891a.125.125,0,0,0,.125.125h5.016a.125.125,0,0,0,.125-.125V6.816a.125.125,0,0,0-.03-.082l-.8-.938a.126.126,0,0,0-.1-.044Zm-.878.125A.878.878,0,0,1,16.074,5h4.212a.878.878,0,0,1,.666.307l.8.938a.878.878,0,0,1,.211.571V9.891a.878.878,0,0,1-.878.878H16.074a.878.878,0,0,1-.878-.878Z" transform="translate(-10.18 -5)" fill="#cecece" fill-rule="evenodd"/>
    <path id="Path_812" data-name="Path 812" d="M18.255,8.435a.376.376,0,0,1,.376-.376h2.414a.376.376,0,0,1,0,.752H18.631A.376.376,0,0,1,18.255,8.435Zm0,1.5a.376.376,0,0,1,.376-.376h3.26a.376.376,0,0,1,0,.752h-3.26A.376.376,0,0,1,18.255,9.94Z" transform="translate(-11.735 -6.554)" fill="#cecece" fill-rule="evenodd"/>
  </g>
  <path id="Path_813" data-name="Path 813" d="M17.474,19.011a.5.5,0,1,1-.5-.5A.5.5,0,0,1,17.474,19.011Z" transform="translate(-10.828 -11.864)" fill="#cecece"/>
  <path id="Path_814" data-name="Path 814" d="M17.474,22.58a.5.5,0,1,1-.5-.5A.5.5,0,0,1,17.474,22.58Z" transform="translate(-10.828 -13.677)" fill="#cecece"/>
  <path id="Path_815" data-name="Path 815" d="M17.474,26.149a.5.5,0,1,1-.5-.5A.5.5,0,0,1,17.474,26.149Z" transform="translate(-10.828 -15.49)" fill="#cecece"/>
  <path id="Path_816" data-name="Path 816" d="M21.552,19.011a.5.5,0,1,1-.5-.5A.5.5,0,0,1,21.552,19.011Z" transform="translate(-12.9 -11.864)" fill="#cecece"/>
  <path id="Path_817" data-name="Path 817" d="M21.552,22.58a.5.5,0,1,1-.5-.5A.5.5,0,0,1,21.552,22.58Z" transform="translate(-12.9 -13.677)" fill="#cecece"/>
  <path id="Path_818" data-name="Path 818" d="M21.552,26.149a.5.5,0,1,1-.5-.5A.5.5,0,0,1,21.552,26.149Z" transform="translate(-12.9 -15.49)" fill="#cecece"/>
  <path id="Path_819" data-name="Path 819" d="M25.63,19.011a.5.5,0,1,1-.5-.5A.5.5,0,0,1,25.63,19.011Z" transform="translate(-14.972 -11.864)" fill="#cecece"/>
  <path id="Path_820" data-name="Path 820" d="M25.63,22.58a.5.5,0,1,1-.5-.5A.5.5,0,0,1,25.63,22.58Z" transform="translate(-14.972 -13.677)" fill="#cecece"/>
  <path id="Path_821" data-name="Path 821" d="M25.63,26.149a.5.5,0,1,1-.5-.5A.5.5,0,0,1,25.63,26.149Z" transform="translate(-14.972 -15.49)" fill="#cecece"/>
</svg>
