<svg xmlns="http://www.w3.org/2000/svg" width="27" height="27" viewBox="7 3 3 17">
  <g id="Group_3443" data-name="Group 3443" transform="translate(-130 -476)">
    <g id="group" transform="translate(130 435.787)">
      <g id="Group_3383" data-name="Group 3383" transform="translate(0 48.095)">
        <g id="Group_3382" data-name="Group 3382" transform="translate(0 0)">
          <path id="Path_1313" data-name="Path 1313" d="M10.261,230.583H9.084a1.756,1.756,0,0,0-.463.062,1.762,1.762,0,0,0-1.57-.965H4.971a1.762,1.762,0,0,0-1.57.965,1.756,1.756,0,0,0-.463-.062H1.761A1.763,1.763,0,0,0,0,232.344v1.881a1.058,1.058,0,0,0,1.057,1.057h9.908a1.058,1.058,0,0,0,1.057-1.057v-1.881A1.763,1.763,0,0,0,10.261,230.583Zm-7.051.858v3.137H1.057a.353.353,0,0,1-.352-.352v-1.881a1.058,1.058,0,0,1,1.057-1.057H2.938a1.053,1.053,0,0,1,.276.037C3.211,231.363,3.21,231.4,3.21,231.441Zm4.9,3.137H3.914v-3.137a1.058,1.058,0,0,1,1.057-1.057h2.08a1.058,1.058,0,0,1,1.057,1.057Zm3.21-.352a.353.353,0,0,1-.352.352H8.812v-3.137c0-.039,0-.078,0-.116a1.054,1.054,0,0,1,.276-.037h1.177a1.058,1.058,0,0,1,1.057,1.057Z" transform="translate(0 -229.68)" fill="#9b9b9b"/>
        </g>
      </g>
      <g id="Group_3385" data-name="Group 3385" transform="translate(0.785 45.673)">
        <g id="Group_3384" data-name="Group 3384" transform="translate(0 0)">
          <path id="Path_1314" data-name="Path 1314" d="M34.979,126.5a1.565,1.565,0,1,0,1.565,1.565A1.567,1.567,0,0,0,34.979,126.5Zm0,2.425a.86.86,0,1,1,.86-.86A.861.861,0,0,1,34.979,128.929Z" transform="translate(-33.414 -126.504)" fill="#9b9b9b"/>
        </g>
      </g>
      <g id="Group_3387" data-name="Group 3387" transform="translate(3.92 43.729)">
        <g id="Group_3386" data-name="Group 3386" transform="translate(0 0)">
          <path id="Path_1315" data-name="Path 1315" d="M169.053,43.729a2.091,2.091,0,1,0,2.091,2.091A2.093,2.093,0,0,0,169.053,43.729Zm0,3.477a1.386,1.386,0,1,1,1.386-1.386A1.388,1.388,0,0,1,169.053,47.206Z" transform="translate(-166.962 -43.729)" fill="#9b9b9b"/>
        </g>
      </g>
      <g id="Group_3389" data-name="Group 3389" transform="translate(8.107 45.673)">
        <g id="Group_3388" data-name="Group 3388" transform="translate(0 0)">
          <path id="Path_1316" data-name="Path 1316" d="M346.859,126.5a1.565,1.565,0,1,0,1.565,1.565A1.567,1.567,0,0,0,346.859,126.5Zm0,2.425a.86.86,0,1,1,.86-.86A.861.861,0,0,1,346.859,128.929Z" transform="translate(-345.294 -126.504)" fill="#9b9b9b"/>
        </g>
      </g>
    </g>
  </g>
</svg>
