<svg id="projector" xmlns="http://www.w3.org/2000/svg" width="27" height="27" viewBox="7 0 3 17">
  <path id="Path_832" data-name="Path 832" d="M14.846,15.778h-.9a2.656,2.656,0,0,0-4.807,0H3.65a1.4,1.4,0,0,0-1.4,1.4v2.545a1.4,1.4,0,0,0,1.4,1.4h11.2a1.4,1.4,0,0,0,1.4-1.4V17.178a1.4,1.4,0,0,0-1.4-1.4Zm-3.308-.762A1.909,1.909,0,1,1,9.63,16.924a1.909,1.909,0,0,1,1.909-1.909Zm3.944,4.707a.637.637,0,0,1-.636.636H3.65a.637.637,0,0,1-.636-.636V17.178a.637.637,0,0,1,.636-.636H8.9a2.636,2.636,0,0,0-.039.383,2.672,2.672,0,1,0,5.344,0,2.636,2.636,0,0,0-.039-.383h.675a.637.637,0,0,1,.636.636Z" transform="translate(-2.25 -9.161)" fill="#cecece"/>
  <path id="Path_833" data-name="Path 833" d="M15.635,5.905a3.059,3.059,0,0,1,4.319,0,.382.382,0,0,0,.539-.54,3.822,3.822,0,0,0-5.4,0,.382.382,0,0,0,.539.54Z" transform="translate(-8.506 -4.249)" fill="#cecece"/>
  <path id="Path_834" data-name="Path 834" d="M20.179,8.569a.382.382,0,0,0,.27-.651,2.293,2.293,0,0,0-3.238,0,.382.382,0,1,0,.54.54,1.53,1.53,0,0,1,2.159,0A.38.38,0,0,0,20.179,8.569Z" transform="translate(-9.542 -5.722)" fill="#cecece"/>
  <path id="Path_835" data-name="Path 835" d="M19.4,19.542A1.145,1.145,0,1,0,18.25,18.4,1.145,1.145,0,0,0,19.4,19.542Zm0-1.527a.382.382,0,1,1-.382.382A.382.382,0,0,1,19.4,18.015Z" transform="translate(-10.107 -10.634)" fill="#cecece"/>
  <path id="Path_836" data-name="Path 836" d="M7.159,20.25H5.632a.382.382,0,0,0,0,.763H7.159a.382.382,0,0,0,0-.763Z" transform="translate(-3.723 -12.106)" fill="#cecece"/>
  <ellipse id="Ellipse_67" data-name="Ellipse 67" cx="0.763" cy="0.763" rx="0.763" ry="0.763" transform="translate(8.527 3.054)" fill="#cecece"/>
</svg>
