<svg id="Layer_2" data-name="Layer 2" xmlns="http://www.w3.org/2000/svg" width="27" height="27" viewBox="7 0 3 17">
  <path id="Path_822" data-name="Path 822" d="M12.242,2.65H2.547A1.552,1.552,0,0,0,1,4.2v6.19a1.552,1.552,0,0,0,1.547,1.548H6.968v.8H5.689a.426.426,0,0,0,0,.853l3.41-.038a.426.426,0,0,0,0-.853H7.821v-.763h4.421a1.552,1.552,0,0,0,1.547-1.548V4.2A1.552,1.552,0,0,0,12.242,2.65Zm.695,7.738a.7.7,0,0,1-.695.695H2.547a.7.7,0,0,1-.695-.695V4.2A.7.7,0,0,1,2.547,3.5h9.694a.7.7,0,0,1,.695.695Z" transform="translate(-1 -2.65)" fill="#cecece"/>
</svg>
