<svg xmlns="http://www.w3.org/2000/svg" width="27" height="27" viewBox="7 0 3 17">
  <path id="whiteboard" d="M15.05,4H3.275a.775.775,0,0,0-.775.775V11.9a.775.775,0,0,0,.775.775H6.854l-1.81,3.015a.465.465,0,0,0,.158.638.5.5,0,0,0,.242.065.465.465,0,0,0,.4-.226l2.095-3.492H8.7v2.634a.465.465,0,1,0,.93,0V12.677h.759l2.095,3.492a.468.468,0,0,0,.4.226.477.477,0,0,0,.239-.065.465.465,0,0,0,.158-.638l-1.807-3.015H15.05a.775.775,0,0,0,.775-.775V4.775A.775.775,0,0,0,15.05,4Zm-.155,1.7v6.043H3.43V4.93H14.895Z" transform="translate(-2.5 -4)" fill="#cecece"/>
</svg>
