<svg id="wifi-router" xmlns="http://www.w3.org/2000/svg" width="27" height="27" viewBox="7 0 3 17">
  <path id="Path_801" data-name="Path 801" d="M5,23.531a1.366,1.366,0,0,1,1.372-1.36h9.977a1.366,1.366,0,0,1,1.372,1.36v.989a1.366,1.366,0,0,1-1.372,1.36H6.372A1.366,1.366,0,0,1,5,24.52Zm1.372-.618a.621.621,0,0,0-.624.618v.989a.621.621,0,0,0,.624.618h9.977a.621.621,0,0,0,.624-.618v-.989a.621.621,0,0,0-.624-.618Zm4.614,1.113a.372.372,0,0,1,.374-.371h1a.371.371,0,1,1,0,.742h-1A.373.373,0,0,1,10.986,24.025Zm2.993,0a.372.372,0,0,1,.374-.371h1a.371.371,0,1,1,0,.742h-1A.373.373,0,0,1,13.979,24.025Z" transform="translate(-5 -14.259)" fill="#cecece" fill-rule="evenodd"/>
  <path id="Path_802" data-name="Path 802" d="M14.552,16.734a6.947,6.947,0,0,0-2.789.58.367.367,0,0,1-.294-.673,7.728,7.728,0,0,1,6.165,0,.367.367,0,1,1-.294.673A6.947,6.947,0,0,0,14.552,16.734Z" transform="translate(-8.192 -11.107)" fill="#cecece" fill-rule="evenodd"/>
  <path id="Path_803" data-name="Path 803" d="M13.278,11.734a8.891,8.891,0,0,0-3.992.94.367.367,0,1,1-.329-.656,9.682,9.682,0,0,1,8.641,0,.367.367,0,0,1-.329.656,8.89,8.89,0,0,0-3.992-.94Z" transform="translate(-6.918 -8.554)" fill="#cecece" fill-rule="evenodd"/>
  <path id="Path_804" data-name="Path 804" d="M12,6.734A10.835,10.835,0,0,0,6.793,8.057a.367.367,0,0,1-.351-.644,11.637,11.637,0,0,1,11.115,0,.367.367,0,1,1-.351.644A10.835,10.835,0,0,0,12,6.734Z" transform="translate(-5.638 -6)" fill="#cecece" fill-rule="evenodd"/>
</svg>
