<svg xmlns="http://www.w3.org/2000/svg" width="18.999" height="18.327" viewBox="0 0 18.999 18.327">
  <defs>
    <style>
      .cls-1 {
        fill: #3c5774;
      }
    </style>
  </defs>
  <g id="admin" transform="translate(0 0)">
    <path id="Path_1443" data-name="Path 1443" class="cls-1" d="M373.461,182.284a.449.449,0,0,1,.149.414,1.794,1.794,0,0,0,2,2,.451.451,0,0,1,.414.149,1.791,1.791,0,0,0,2.87,0,.449.449,0,0,1,.414-.149,1.794,1.794,0,0,0,2-2,.451.451,0,0,1,.149-.414,1.791,1.791,0,0,0,0-2.87A.449.449,0,0,1,381.3,179a1.794,1.794,0,0,0-2-2,.451.451,0,0,1-.414-.149,1.791,1.791,0,0,0-2.87,0,.449.449,0,0,1-.414.149,1.794,1.794,0,0,0-2,2,.451.451,0,0,1-.149.414,1.791,1.791,0,0,0,0,2.87Zm.611-2.056a1.461,1.461,0,0,0,.55-1.35.774.774,0,0,1,.865-.865,1.461,1.461,0,0,0,1.35-.55.778.778,0,0,1,.621-.312.768.768,0,0,1,.621.312,1.461,1.461,0,0,0,1.35.55.774.774,0,0,1,.865.865,1.461,1.461,0,0,0,.55,1.35.778.778,0,0,1,.312.621.768.768,0,0,1-.312.621,1.461,1.461,0,0,0-.55,1.35.774.774,0,0,1-.865.865,1.461,1.461,0,0,0-1.35.55.778.778,0,0,1-.621.312.768.768,0,0,1-.621-.312,1.442,1.442,0,0,0-1.16-.56,1.826,1.826,0,0,0-.19.01.774.774,0,0,1-.865-.865,1.461,1.461,0,0,0-.55-1.35.778.778,0,0,1-.312-.621.769.769,0,0,1,.312-.621Z" transform="translate(-363.392 -176.133)"/>
    <path id="Path_1444" data-name="Path 1444" class="cls-1" d="M429.707,235.3A2.205,2.205,0,1,0,427.5,233.1,2.207,2.207,0,0,0,429.707,235.3Zm0-3.393a1.187,1.187,0,1,1-1.187,1.187A1.189,1.189,0,0,1,429.707,231.912Z" transform="translate(-415.642 -228.383)"/>
    <path id="Path_1445" data-name="Path 1445" class="cls-1" d="M187.708,414.623a.514.514,0,0,0-.414-.214h-9.5a.511.511,0,0,0-.482.346l-.309.9a3.156,3.156,0,0,0-1.547-.411H171.97a3.168,3.168,0,0,0-3.165,3.162v2.9a.508.508,0,0,0,.509.509h15.8a.511.511,0,0,0,.482-.346l2.181-6.382a.509.509,0,0,0-.068-.462Zm-17.885,3.783a2.149,2.149,0,0,1,2.147-2.144h3.491a2.146,2.146,0,0,1,1.211.383l-1.418,4.149h-5.431Zm14.927,2.388h-8.42l1.832-5.364h8.42Z" transform="translate(-168.804 -403.485)"/>
    <path id="Path_1446" data-name="Path 1446" class="cls-1" d="M205.868,265.415a3.315,3.315,0,1,0-3.315-3.315A3.317,3.317,0,0,0,205.868,265.415Zm0-5.611a2.3,2.3,0,1,1-2.3,2.3A2.3,2.3,0,0,1,205.868,259.8Z" transform="translate(-201.006 -254.996)"/>
    <path id="Path_1447" data-name="Path 1447" class="cls-1" d="M410.717,462.735a1.635,1.635,0,1,0-1.635-1.635A1.636,1.636,0,0,0,410.717,462.735Zm0-2.253a.618.618,0,1,1-.617.618A.618.618,0,0,1,410.717,460.482Z" transform="translate(-398.066 -446.474)"/>
  </g>
</svg>
