<svg id="car_1_" data-name="car (1)" xmlns="http://www.w3.org/2000/svg" width="133.513" height="103.273" viewBox="0 0 133.513 103.273">
  <g id="Group_3271" data-name="Group 3271" transform="translate(0 0)">
    <g id="Group_3270" data-name="Group 3270" transform="translate(0 0)">
      <path id="Path_1281" data-name="Path 1281" d="M128.406,91.371,125.5,88.29,115.283,60.76A11.979,11.979,0,0,0,104.129,53H31.182a11.938,11.938,0,0,0-11.155,7.76L9.956,87.947l-4.194,3.88A16.392,16.392,0,0,0,0,104.294v40.111a11.926,11.926,0,0,0,11.925,11.868h7.532a11.926,11.926,0,0,0,11.925-11.868v-5.82h70.75v5.82a11.926,11.926,0,0,0,11.925,11.868h7.531a11.926,11.926,0,0,0,11.925-11.868V103.239A16.543,16.543,0,0,0,128.406,91.371ZM25.39,62.7a6.17,6.17,0,0,1,5.791-3.994h72.976a6.211,6.211,0,0,1,5.791,3.994l8.9,23.964H112.2a19.568,19.568,0,0,0-38.713,0h-57Zm80.992,23.964H79.252a13.858,13.858,0,0,1,27.131,0ZM25.676,144.405a6.2,6.2,0,0,1-6.219,6.162H11.925a6.2,6.2,0,0,1-6.219-6.162v-7.474a11.586,11.586,0,0,0,6.219,1.655H25.676Zm102.132,0a6.2,6.2,0,0,1-6.219,6.162h-7.532a6.222,6.222,0,0,1-6.219-6.162v-5.82h13.751a11.586,11.586,0,0,0,6.219-1.655v7.474Zm-6.219-11.525H11.925a6.155,6.155,0,0,1-6.219-6.105v-22.48A10.711,10.711,0,0,1,9.5,96.135l.114-.114,3.88-3.652H121.531l2.739,2.938c.029.057.114.086.143.143a10.752,10.752,0,0,1,3.366,7.788v23.536h.029A6.173,6.173,0,0,1,121.588,132.88Z" transform="translate(0 -53)" fill="#9b9b9b"/>
    </g>
  </g>
  <g id="Group_3273" data-name="Group 3273" transform="translate(13.408 50.781)">
    <g id="Group_3272" data-name="Group 3272" transform="translate(0 0)">
      <path id="Path_1282" data-name="Path 1282" d="M71.249,231h-21.4A2.861,2.861,0,0,0,47,233.853v14.835a2.861,2.861,0,0,0,2.853,2.853h21.4a2.861,2.861,0,0,0,2.853-2.853V233.853A2.861,2.861,0,0,0,71.249,231ZM68.4,245.835H52.706v-9.129H68.4Z" transform="translate(-47 -231)" fill="#9b9b9b"/>
    </g>
  </g>
  <g id="Group_3275" data-name="Group 3275" transform="translate(93.003 50.781)">
    <g id="Group_3274" data-name="Group 3274" transform="translate(0 0)">
      <path id="Path_1283" data-name="Path 1283" d="M350.249,231h-21.4A2.861,2.861,0,0,0,326,233.853v14.835a2.861,2.861,0,0,0,2.853,2.853h21.4a2.861,2.861,0,0,0,2.853-2.853V233.853A2.861,2.861,0,0,0,350.249,231ZM347.4,245.835H331.706v-9.129H347.4Z" transform="translate(-326 -231)" fill="#9b9b9b"/>
    </g>
  </g>
  <g id="Group_3277" data-name="Group 3277" transform="translate(50.124 62.763)">
    <g id="Group_3276" data-name="Group 3276" transform="translate(0 0)">
      <path id="Path_1284" data-name="Path 1284" d="M206.111,273H178.553a2.853,2.853,0,1,0,0,5.706h27.558a2.853,2.853,0,1,0,0-5.706Z" transform="translate(-175.7 -273)" fill="#9b9b9b"/>
    </g>
  </g>
  <g id="Group_3279" data-name="Group 3279" transform="translate(50.124 53.919)">
    <g id="Group_3278" data-name="Group 3278" transform="translate(0 0)">
      <path id="Path_1285" data-name="Path 1285" d="M206.111,242H178.553a2.853,2.853,0,1,0,0,5.706h27.558a2.853,2.853,0,1,0,0-5.706Z" transform="translate(-175.7 -242)" fill="#9b9b9b"/>
    </g>
  </g>
</svg>
