<svg id="Group_3229" data-name="Group 3229" xmlns="http://www.w3.org/2000/svg" width="22.32" height="16.084" viewBox="0 0 22.32 16.084">
    <g id="Group_3228" data-name="Group 3228" transform="translate(0 0)">
      <path id="Path_1263" data-name="Path 1263" d="M22.042,154.381H20.854v-8.432h.373a1.164,1.164,0,0,0,0-2.328H16.789a8.818,8.818,0,0,0-.3-2.015,3.588,3.588,0,0,0-3.461-2.611H9.438a3.59,3.59,0,0,0-3.46,2.61h0a8.816,8.816,0,0,0-.3,2.017H1.235a1.164,1.164,0,0,0,0,2.328h.373v8.432H.42a.349.349,0,1,0,0,.7H22.042a.349.349,0,1,0,0-.7ZM6.65,141.791h0a2.89,2.89,0,0,1,2.788-2.1h3.586a2.889,2.889,0,0,1,2.788,2.1,8.119,8.119,0,0,1,.283,1.83H6.366a8.113,8.113,0,0,1,.284-1.831ZM.768,144.785a.467.467,0,0,1,.466-.466H21.227a.466.466,0,0,1,0,.932H1.235A.467.467,0,0,1,.768,144.785Zm1.537,9.6v-8.432H20.156v8.432Z" transform="translate(-0.071 -138.995)" fill="#3c5774"/>
    </g>
  </svg>
  