<svg xmlns="http://www.w3.org/2000/svg" width="21.517" height="21.728" viewBox="0 0 21.517 21.728">
  <g id="Group_3213" data-name="Group 3213" transform="translate(19205.815 -19691.843)">
    <path id="Path_1222" data-name="Path 1222" d="M245.332,341.332h.9v6.276h-.9Zm0,0" transform="translate(-19440.838 19365.963)" fill="#3c5774"/>
    <path id="Path_1223" data-name="Path 1223" d="M96,298.668h13.448v.9H96Zm0,0" transform="translate(-19297.779 19406.83)" fill="#3c5774"/>
    <path id="Path_1225" data-name="Path 1225" d="M300.909,194.332a.44.44,0,0,1-.177-.036.448.448,0,0,1-.235-.589l1.345-3.138a.448.448,0,0,1,.412-.272h3.138a1.346,1.346,0,0,0,1.345-1.345v-5.827a.9.9,0,0,0-.9-.9h-.448c-.315,0-.6.208-.987.719-.433.572-1.747,2.186-1.8,2.254a.449.449,0,0,1-.348.165h-2.241a.449.449,0,0,0-.448.448v.9a.448.448,0,1,1-.9,0v-.9a1.346,1.346,0,0,1,1.345-1.345h2.028c.353-.435,1.305-1.609,1.649-2.063a2.224,2.224,0,0,1,1.7-1.075h.448a1.8,1.8,0,0,1,1.793,1.793v5.827a2.244,2.244,0,0,1-2.241,2.241h-2.842l-1.228,2.866A.448.448,0,0,1,300.909,194.332Zm0,0" transform="translate(-19491.932 19519.234)" fill="#3c5774"/>
    <path id="Path_1226" data-name="Path 1226" d="M299.119,306.737a.449.449,0,0,1-.425-.59l1.486-4.46a1.79,1.79,0,0,1,1.7-1.226h1.272v-1.345a.448.448,0,0,1,.9,0v1.793a.448.448,0,0,1-.448.448h-1.72a.894.894,0,0,0-.85.612l-1.487,4.46A.449.449,0,0,1,299.119,306.737Zm0,0" transform="translate(-19491.936 19406.83)" fill="#3c5774"/>
    <path id="Path_1227" data-name="Path 1227" d="M405.777,258.7a.448.448,0,0,1-.358-.717l1.345-1.793a.448.448,0,0,1,.717.538l-1.345,1.793A.446.446,0,0,1,405.777,258.7Zm0,0" transform="translate(-19594.109 19447.697)" fill="#3c5774"/>
    <path id="Path_1229" data-name="Path 1229" d="M6.724,194.332a.448.448,0,0,1-.412-.272l-1.228-2.866H2.241A2.244,2.244,0,0,1,0,188.953v-5.827a1.8,1.8,0,0,1,1.793-1.793h.448a2.222,2.222,0,0,1,1.7,1.075c.344.454,1.3,1.628,1.649,2.063H7.62a1.346,1.346,0,0,1,1.345,1.345v.9a.448.448,0,1,1-.9,0v-.9a.449.449,0,0,0-.448-.448H5.379a.447.447,0,0,1-.347-.165c-.056-.068-1.37-1.682-1.8-2.254-.386-.511-.672-.719-.988-.719H1.793a.9.9,0,0,0-.9.9v5.827A1.347,1.347,0,0,0,2.241,190.3H5.379a.448.448,0,0,1,.412.272l1.345,3.138a.448.448,0,0,1-.235.589.44.44,0,0,1-.177.036Zm0,0" transform="translate(-19205.814 19519.234)" fill="#3c5774"/>
    <path id="Path_1230" data-name="Path 1230" d="M90.263,306.737a.449.449,0,0,1-.426-.307l-1.486-4.46a.9.9,0,0,0-.85-.613H85.78a.448.448,0,0,1-.448-.448v-1.793a.448.448,0,0,1,.9,0v1.345H87.5a1.791,1.791,0,0,1,1.7,1.226l1.486,4.46a.448.448,0,0,1-.283.567A.456.456,0,0,1,90.263,306.737Zm0,0" transform="translate(-19287.561 19406.83)" fill="#3c5774"/>
    <path id="Path_1231" data-name="Path 1231" d="M55.123,258.7a.449.449,0,0,1-.359-.179l-1.345-1.793a.448.448,0,0,1,.717-.538l1.345,1.793a.448.448,0,0,1-.358.717Zm0,0" transform="translate(-19256.904 19447.697)" fill="#3c5774"/>
    <path id="Path_1232" data-name="Path 1232" d="M167.62,134.276a.448.448,0,0,1-.448-.448v-3.138a1.8,1.8,0,0,0-1.793-1.793h-2.69a1.8,1.8,0,0,0-1.793,1.793v1.345a.448.448,0,1,1-.9,0v-1.345a2.692,2.692,0,0,1,2.69-2.69h2.69a2.692,2.692,0,0,1,2.69,2.69v3.138A.448.448,0,0,1,167.62,134.276Zm0,0" transform="translate(-19359.092 19570.33)" fill="#3c5774"/>
    <path id="Path_1264" data-name="Path 1264" d="M210.94,9.759a2.136,2.136,0,0,0,2.134-2.134V6.295a2.134,2.134,0,0,0-4.267,0V7.626A2.136,2.136,0,0,0,210.94,9.759Zm-1.41-3.465a1.41,1.41,0,0,1,2.821,0V7.626a1.41,1.41,0,0,1-2.821,0Z" transform="translate(-19405.791 19687.682)" fill="#3c5774"/>
    <path id="Path_1265" data-name="Path 1265" d="M210.94,9.759a2.136,2.136,0,0,0,2.134-2.134V6.295a2.134,2.134,0,0,0-4.267,0V7.626A2.136,2.136,0,0,0,210.94,9.759Zm-1.41-3.465a1.41,1.41,0,0,1,2.821,0V7.626a1.41,1.41,0,0,1-2.821,0Z" transform="translate(-19397.371 19689.912)" fill="#3c5774"/>
    <path id="Path_1266" data-name="Path 1266" d="M210.94,9.759a2.136,2.136,0,0,0,2.134-2.134V6.295a2.134,2.134,0,0,0-4.267,0V7.626A2.136,2.136,0,0,0,210.94,9.759Zm-1.41-3.465a1.41,1.41,0,0,1,2.821,0V7.626a1.41,1.41,0,0,1-2.821,0Z" transform="translate(-19414.621 19689.914)" fill="#3c5774"/>
  </g>
</svg>
