<svg xmlns="http://www.w3.org/2000/svg" width="20" height="20" viewBox="0 0 20 20">
  <defs>
    <style>
      .cls-1 {
        fill: #3c5774;
      }
    </style>
  </defs>
  <g id="room-service_2_" data-name="room-service (2)" transform="translate(0)">
    <path id="Path_1274" data-name="Path 1274" class="cls-1" d="M19,6.667h-.353c-.206-2.969-3.129-5.333-6.7-5.333h-.339A.989.989,0,0,0,11.667,1a1,1,0,1,0-2,0,.989.989,0,0,0,.061.333H9.389c-3.573,0-6.5,2.364-6.7,5.333H2.333a1,1,0,0,0,0,2h3.7A.881.881,0,0,0,6,8.89V10a4.453,4.453,0,0,1-.676,2.623c-.088.169-.184.353-.288.561A7.033,7.033,0,0,0,4.47,14.73a1.009,1.009,0,0,0-1.167.154A9.96,9.96,0,0,1,.612,16.908,1,1,0,0,0,0,17.828V19a1,1,0,0,0,1,1H5.767a1,1,0,0,0,.625-.219l.9-.722a.99.99,0,0,0,.143-1.414,9.45,9.45,0,0,1,2.5-1.914,1.641,1.641,0,0,0,.505-.391,18.444,18.444,0,0,1,2.982-2.773,1.649,1.649,0,0,0,.657-1.046,5.193,5.193,0,0,1,1.381-2.855H19a1,1,0,0,0,0-2ZM10.333,1a.333.333,0,1,1,.333.333A.333.333,0,0,1,10.333,1ZM9.389,2h2.555c3.2,0,5.826,2.067,6.035,4.667H3.354C3.563,4.067,6.186,2,9.389,2ZM6.877,18.538l-.9.722a.333.333,0,0,1-.208.073H1A.333.333,0,0,1,.667,19V17.828a.33.33,0,0,1,.2-.305h0a10.546,10.546,0,0,0,2.892-2.156A.34.34,0,0,1,4,15.273a.329.329,0,0,1,.233.1L6.9,18.043a.333.333,0,0,1-.028.5Zm6.546-7.14a.989.989,0,0,1-.392.629,19.1,19.1,0,0,0-3.1,2.873.982.982,0,0,1-.3.233,10.133,10.133,0,0,0-2.663,2.033L5.047,15.241a6.081,6.081,0,0,1,.586-1.759c.1-.2.2-.385.283-.551A5.075,5.075,0,0,0,6.667,10V8.89a.224.224,0,0,1,.223-.223.68.68,0,0,1,.424.149.642.642,0,0,1,.23.376,6.035,6.035,0,0,1,.123,1.141A10.593,10.593,0,0,1,7.54,11.74a1.405,1.405,0,0,0,2.316,1.247l2.11-1.85a1.646,1.646,0,0,0,.45-.637,3.362,3.362,0,0,1,1.31-1.833h.841A6.448,6.448,0,0,0,13.423,11.4ZM11.98,8.667h.715a6.151,6.151,0,0,0-.9,1.589.972.972,0,0,1-.269.381l-.722.633c.072-.277.138-.567.19-.881a2.887,2.887,0,0,1,.984-1.722Zm-1.642,1.611A7.321,7.321,0,0,1,9.8,12.153l-.378.333a.762.762,0,0,1-1.046-.072.726.726,0,0,1-.173-.58,11.147,11.147,0,0,0,.133-1.5A6.733,6.733,0,0,0,8.2,9.061a1.3,1.3,0,0,0-.152-.394h3.018A3.505,3.505,0,0,0,10.338,10.278ZM19,8H2.333a.333.333,0,0,1,0-.667H19A.333.333,0,0,1,19,8Z" transform="translate(0 0)"/>
  </g>
</svg>
