<svg xmlns="http://www.w3.org/2000/svg" width="54.666" height="58" viewBox="0 0 54.666 58">
  <g id="building" transform="translate(-14.716)">
    <path id="Path_996" data-name="Path 996" d="M67.683,54.6H63.2V1.7A1.7,1.7,0,0,0,61.5,0H22.6a1.7,1.7,0,0,0-1.7,1.7V54.6H16.415a1.7,1.7,0,1,0,0,3.4H67.683a1.7,1.7,0,1,0,0-3.4Zm-31.426,0V43.017H47.841V54.6Zm14.983,0V41.318a1.7,1.7,0,0,0-1.7-1.7H34.558a1.7,1.7,0,0,0-1.7,1.7V54.6H24.3V3.4H59.8V54.6Z" fill="#1a8ef1"/>
    <path id="Path_997" data-name="Path 997" d="M145.266,66.309h-8.327a1.7,1.7,0,0,0-1.7,1.7v8.327a1.7,1.7,0,0,0,1.7,1.7h8.327a1.7,1.7,0,0,0,1.7-1.7V68.008A1.7,1.7,0,0,0,145.266,66.309Zm-1.7,8.327h-4.929V69.707h4.929Z" transform="translate(-106.871 -58.797)" fill="#1a8ef1"/>
    <path id="Path_998" data-name="Path 998" d="M283.278,66.309h-8.327a1.7,1.7,0,0,0-1.7,1.7v8.327a1.7,1.7,0,0,0,1.7,1.7h8.327a1.7,1.7,0,0,0,1.7-1.7V68.008A1.7,1.7,0,0,0,283.278,66.309Zm-1.7,8.327H276.65V69.707h4.929Z" transform="translate(-229.249 -58.797)" fill="#1a8ef1"/>
    <path id="Path_999" data-name="Path 999" d="M145.266,205.954h-8.327a1.7,1.7,0,0,0-1.7,1.7v8.327a1.7,1.7,0,0,0,1.7,1.7h8.327a1.7,1.7,0,0,0,1.7-1.7v-8.327A1.7,1.7,0,0,0,145.266,205.954Zm-1.7,8.327h-4.929v-4.929h4.929Z" transform="translate(-106.871 -182.623)" fill="#1a8ef1"/>
    <path id="Path_1000" data-name="Path 1000" d="M283.278,205.954h-8.327a1.7,1.7,0,0,0-1.7,1.7v8.327a1.7,1.7,0,0,0,1.7,1.7h8.327a1.7,1.7,0,0,0,1.7-1.7v-8.327A1.7,1.7,0,0,0,283.278,205.954Zm-1.7,8.327H276.65v-4.929h4.929Z" transform="translate(-217.781 -196.941) rotate(3)" fill="#1a8ef1"/>
  </g>
</svg>
