<svg xmlns="http://www.w3.org/2000/svg" width="18.662" height="24.5" viewBox="0 0 18.662 24.5">
  <g id="chair" transform="translate(-61)">
    <path id="Path_1078" data-name="Path 1078" d="M78.944,9.092H77.03a.718.718,0,0,0,0,1.436h.239v2.632a1.2,1.2,0,0,1-1.2,1.2H72.484V12.92h1.072A2.153,2.153,0,0,0,75.7,10.588l-.718-8.613A2.166,2.166,0,0,0,72.838,0H67.824a2.166,2.166,0,0,0-2.146,1.974l-.718,8.613a2.153,2.153,0,0,0,2.146,2.332h1.072v1.436H64.589a1.2,1.2,0,0,1-1.2-1.2V10.527h.239a.718.718,0,1,0,0-1.436H61.718a.718.718,0,0,0,0,1.436h.239v2.632a2.635,2.635,0,0,0,2.632,2.632h.718v.718a2.156,2.156,0,0,0,2.153,2.153h2.153v1.732L65.8,21.666a.718.718,0,0,0-.491.681v1.436a.718.718,0,1,0,1.436,0v-.918l2.871-.957v1.4a.718.718,0,1,0,1.436,0v-1.4l2.871.957v.918a.718.718,0,0,0,1.436,0V22.347a.718.718,0,0,0-.491-.681l-3.816-1.272V18.662H73.2a2.156,2.156,0,0,0,2.153-2.153v-.718h.718a2.635,2.635,0,0,0,2.632-2.632V10.527h.239a.718.718,0,1,0,0-1.436ZM67.106,11.484a.718.718,0,0,1-.715-.777l.718-8.613a.722.722,0,0,1,.715-.658h5.014a.722.722,0,0,1,.715.658l.718,8.613a.718.718,0,0,1-.715.777h-6.45Zm3.943,1.436v1.436H69.613V12.92Zm2.871,3.589a.719.719,0,0,1-.718.718H67.46a.719.719,0,0,1-.718-.718v-.718H73.92Z" fill="#37bdf2"/>
  </g>
</svg>
