<svg xmlns="http://www.w3.org/2000/svg" width="23.799" height="23.908" viewBox="0 0 23.799 23.908">
  <defs>
    <style>
      .cls-1 {
        fill: #37bdf2;
      }
    </style>
  </defs>
  <g id="coffee" transform="translate(-1.162)">
    <g id="Group_3476" data-name="Group 3476" transform="translate(13.741 0)">
      <g id="Group_3475" data-name="Group 3475" transform="translate(0 0)">
        <path id="Path_1336" data-name="Path 1336" class="cls-1" d="M272.567,4.608a2.72,2.72,0,0,0,1.14-2.071A3.354,3.354,0,0,0,272.592.178a.7.7,0,1,0-.936,1.053A2.036,2.036,0,0,1,272.3,2.5a1.375,1.375,0,0,1-.617,1.009,2.72,2.72,0,0,0-1.14,2.071,3.355,3.355,0,0,0,1.114,2.358.7.7,0,0,0,.939-1.05,1.972,1.972,0,0,1-.645-1.28A1.379,1.379,0,0,1,272.567,4.608Z" transform="translate(-270.541 0)"/>
      </g>
    </g>
    <g id="Group_3478" data-name="Group 3478" transform="translate(9.272 0)">
      <g id="Group_3477" data-name="Group 3477" transform="translate(0 0)">
        <path id="Path_1337" data-name="Path 1337" class="cls-1" d="M176.862,4.608A2.72,2.72,0,0,0,178,2.537,3.354,3.354,0,0,0,176.887.178a.7.7,0,1,0-.936,1.053,2.036,2.036,0,0,1,.642,1.273,1.375,1.375,0,0,1-.617,1.009,2.72,2.72,0,0,0-1.14,2.071,3.355,3.355,0,0,0,1.114,2.358.7.7,0,0,0,.939-1.05,1.972,1.972,0,0,1-.645-1.28A1.379,1.379,0,0,1,176.862,4.608Z" transform="translate(-174.836 0)"/>
      </g>
    </g>
    <g id="Group_3480" data-name="Group 3480" transform="translate(1.163 10.273)">
      <g id="Group_3479" data-name="Group 3479" transform="translate(0)">
        <path id="Path_1338" data-name="Path 1338" class="cls-1" d="M21.381,221.223h-.834v-.517a.7.7,0,0,0-.7-.7H1.867a.7.7,0,0,0-.7.7v3.717a9.122,9.122,0,0,0,4.547,7.8H1.868a.7.7,0,0,0,0,1.409H19.843a.7.7,0,0,0,0-1.409H16a9.451,9.451,0,0,0,3.605-3.844h1.776a3.58,3.58,0,1,0,0-7.161Zm-2.242,3.2a8.064,8.064,0,0,1-8.283,7.8,8.064,8.064,0,0,1-8.283-7.8v-3.013H19.138v3.013Zm2.242,2.551H20.169a8.765,8.765,0,0,0,.378-2.551v-1.792h.834a2.172,2.172,0,0,1,0,4.343Z" transform="translate(-1.163 -220.002)"/>
      </g>
    </g>
    <g id="Group_3482" data-name="Group 3482" transform="translate(4.804 0)">
      <g id="Group_3481" data-name="Group 3481" transform="translate(0 0)">
        <path id="Path_1339" data-name="Path 1339" class="cls-1" d="M81.157,4.609A2.72,2.72,0,0,0,82.3,2.538,3.354,3.354,0,0,0,81.182.179a.7.7,0,0,0-.936,1.053A2.036,2.036,0,0,1,80.889,2.5a1.375,1.375,0,0,1-.617,1.009,2.72,2.72,0,0,0-1.14,2.071,3.355,3.355,0,0,0,1.114,2.358.7.7,0,1,0,.936-1.053,2.036,2.036,0,0,1-.642-1.273A1.375,1.375,0,0,1,81.157,4.609Z" transform="translate(-79.131 -0.001)"/>
      </g>
    </g>
  </g>
</svg>
