<svg xmlns="http://www.w3.org/2000/svg" width="22.326" height="16.372" viewBox="0 0 22.326 16.372">
  <defs>
    <style>
      .cls-1 {
        fill: #3c5774;
      }
    </style>
  </defs>
  <g id="Layer_1" transform="translate(1.8 -2.946)">
    <g id="Group_18" data-name="Group 18" transform="translate(-1.8 2.946)">
      <path id="Path_31" data-name="Path 31" class="cls-1" d="M18.919,18.489H11.366l.2-.163a.744.744,0,1,0-.93-1.162l-1.86,1.488a.744.744,0,0,0,0,1.162L10.64,21.3a.744.744,0,1,0,.93-1.162l-.2-.164h7.553a.744.744,0,0,0,0-1.488Z" transform="translate(-2.919 -8.07)"/>
      <path id="Path_32" data-name="Path 32" class="cls-1" d="M17.523,9.163a.744.744,0,1,0-.93,1.162l.2.164H9.244a.744.744,0,1,0,0,1.488H16.8l-.2.163a.744.744,0,1,0,.93,1.162l1.86-1.488a.744.744,0,0,0,0-1.162Z" transform="translate(-2.919 -6.023)"/>
      <path id="Path_33" data-name="Path 33" class="cls-1" d="M20.449,5H3.877A2.88,2.88,0,0,0,1,7.877V18.5a2.88,2.88,0,0,0,2.877,2.877H20.449A2.88,2.88,0,0,0,23.326,18.5V7.877A2.88,2.88,0,0,0,20.449,5Zm1.389,13.5a1.39,1.39,0,0,1-1.389,1.389H3.877A1.39,1.39,0,0,1,2.488,18.5V7.877A1.39,1.39,0,0,1,3.877,6.488H20.449a1.39,1.39,0,0,1,1.389,1.389Z" transform="translate(-1 -5)"/>
    </g>
  </g>
</svg>
