<svg id="Group_2385" data-name="Group 2385" xmlns="http://www.w3.org/2000/svg" width="149.943" height="197.166" viewBox="0 0 149.943 197.166">
  <g id="Group_2374" data-name="Group 2374" transform="translate(55.516 156.479)">
    <g id="Group_2373" data-name="Group 2373">
      <path id="Path_1026" data-name="Path 1026" d="M54.753,105.433l39.519,1.373-.909,13.519a1.8,1.8,0,0,1-2.156,2.059l-32.038,1.344c-4.958.208-4.069-2.645-3.862-6.271.062-1.08.133-12-.554-12.024Z" transform="translate(-54.753 -105.433)" fill="#37bdf2"/>
    </g>
  </g>
  <g id="Group_2378" data-name="Group 2378">
    <g id="Group_2376" data-name="Group 2376" transform="translate(48.812 28.186)">
      <g id="Group_2375" data-name="Group 2375">
        <path id="Path_1027" data-name="Path 1027" d="M92.351,62.827,78.788,59.082a1.457,1.457,0,0,0-1.325.289L66.688,68.42A1.457,1.457,0,0,1,64.3,67.37l-.629-14.057a1.457,1.457,0,0,0-.684-1.171L51.046,44.692a1.457,1.457,0,0,1,.26-2.6L64.48,37.149a1.457,1.457,0,0,0,.9-1.012l3.4-13.655a1.457,1.457,0,0,1,2.553-.556l8.772,11a1.457,1.457,0,0,0,1.242.545l14.036-.989A1.457,1.457,0,0,1,96.7,34.741L88.947,46.483a1.457,1.457,0,0,0-.135,1.349L94.09,60.876a1.457,1.457,0,0,1-1.738,1.951Z" transform="translate(-50.36 -21.376)" fill="#37bdf2"/>
      </g>
    </g>
    <g id="Group_2377" data-name="Group 2377">
      <path id="Path_1028" data-name="Path 1028" d="M43.934,100.847c1.061-.921,5.626-.363,5.455-2.144-.046-.5-.147-.886-2.005-1.158a7.963,7.963,0,0,0-5.17.538c-2.751,1.53-3.271,6.134-3.178,9.284.065,3.045.343,3.607.281,7.21-.029,4.765.066,21.687,1.317,17.194a15.7,15.7,0,0,0,4.809,2.25c15.529,4.954,50.445,4.625,66.306,2.868a39.487,39.487,0,0,0,9.582-2.032,10.268,10.268,0,0,0,3.359-1.808c.434-.417.371-.642.269-.864-.577-1.256-3.049.768-13.5,1.461-14.76,1.039-56.57,2.607-70.709-2.357a154.447,154.447,0,0,0,1.932-20.66c-.043-1.221-.082-2.351-.117-3.339-.148-3.361.656-6.085,1.367-6.443Z" transform="translate(-7.514 46.803)"/>
      <path id="Path_1029" data-name="Path 1029" d="M136.856,120.23a11.636,11.636,0,0,0-5.812-2.262c-.911-.061-1.037.148-1.109.379-.32,1.037,3,1.583,5.278,3.765.915.878,1.936,2.587,1.468,4.167-.549,1.8-2.461,3.875-5.434,4.995a35.6,35.6,0,0,1-5.336,1.368c-12.454,2.576-26.964,4.033-47.644,3.2-4.716-.136-9.535-.116-14.278-.272-4.955-.168-11.612-.758-13.9-1.032-5.2-.592-13.021-2.2-15.1-6.97-1.715-3.869.38-8.008,3.937-8.334a7.225,7.225,0,0,1,1.845-.085c.874.008.94-.1.054-.357a5.5,5.5,0,0,0-1.964-.268,5.979,5.979,0,0,0-5.648,4.421,8.8,8.8,0,0,0,4.069,9.888c5.474,3.665,12.973,4.3,19.4,5.044,7.248.858,14.42.879,21.465,1.218,22.047,1.316,37.272-.433,51.457-3.871a18.473,18.473,0,0,0,2.874-.929c4.779-1.979,8.9-6.715,6.45-11.542a7.908,7.908,0,0,0-2.068-2.519Z" transform="translate(-10.751 57.637)"/>
      <path id="Path_1030" data-name="Path 1030" d="M163.036,27.463c-26.427-.917-28.557-.1-.157,2.494,2.329.2,2.992.43,2.554,2.3-.126.594-.4,1.358-.6,2.036a60.123,60.123,0,0,1-11.5,20.877,70.54,70.54,0,0,1-12.97,12.1c-4.1,3.026-7.685,5.011-9.491,6.219,1.609-3.686,2.871-6.838,4.443-11.5,1.492-.265,5.211-2.821,6.661-3.914A50.415,50.415,0,0,0,154.963,43.23c1.956-3.573,2.895-5.152,2.235-6.561a2.422,2.422,0,0,0-1.288-1.183,8.407,8.407,0,0,0-2.677-.429c-5.832-.378-10.675-.618-11.666-.493.628-5.143,1.473-16.046.454-21.137a.516.516,0,0,0,.285-.372c.127-.471.069-.942-4.445-2.426-1.124-.391-2.547-.757-4.314-1.213C107.839,2.969,77.9,3.328,50.885,10.954c-4.132,1.248-6.631,2.183-6.567,2.406.149.529,11.148-2.253,23.373-3.646,39.4-4.634,67.039,3.534,73.112,3.835-.274,1.546-.351,3.965-.831,9.488-12.089-5.2-32.732-9.284-51.665-8.705A138.432,138.432,0,0,0,51.776,20.1c-1.24.375-5.393,1.772-6.307,2.208-.206-5.461-.12-8.8-.326-8.806a19.539,19.539,0,0,0-.521,4.269c-.132,2.357-.259,5.631-.168,9.62-1.415-.629-18.128-1.679-20.136-1.573-6.227.441-7.021,6.274-4.835,12.086.546,1.4,1.049,2.808,1.678,4.14,6.259,14.307,18.3,26.054,29.286,31.12,2.584,1.14,3.536,1.3,3.953,1.15a85.88,85.88,0,0,0,7.322,14.557c4.709,7.354,11.184,13.55,19.453,16.58a3.343,3.343,0,0,0-1.486,2.459,6.316,6.316,0,0,0,.617,3.72c1.268,2.652,3.3,4.045,3.488,7.081.239,3.447-1.856,7.477-4.2,10.076-3.928,4.426-8.527,4.943-11.207,7.926a4.528,4.528,0,0,0-.94,1.406,10.881,10.881,0,0,0-1.228.175,10.05,10.05,0,0,0-4.414,1.9c-2.441,2.036-2.921,5.062-1.336,7.183,1.943,2.728,5.2,3.023,8.428,3.086,16.768.324,32.64.372,50.017.049,3.366-.111,7.081-.989,8.184-4.171a4.844,4.844,0,0,0,2.628,1.094,16.272,16.272,0,0,1,2.722.73c2.218.956,2.118,2.947,1.876,5.341-.241,2.145-.43,8.914-.451,11.349-.124,14.421.664,14.71,1.64,14.7s1.769-.323,1.893-14.652c.045-5.26-.19-9.545-.155-11.253a10.687,10.687,0,0,0-.693-4.536,5.137,5.137,0,0,0-3.507-2.83,12.426,12.426,0,0,0-3.19-.217,12.553,12.553,0,0,0-2.726.147c.806-2.557-.506-5.013-2.731-6.433a8.28,8.28,0,0,0-3.938-1.238c-.617.016-.728.225-.805.456-.462,1.374,4.351,2.007,4.743,5.284.2,2.382-3.161,2.844-5.561,2.855-52.788-.058-54.005,2.384-56.8-.953-1.378-1.535-.538-3.789.687-4.975a14.475,14.475,0,0,1,4.6-2.634.685.685,0,0,0,.342.652c.421.329.735.378,2.3-.583a43.632,43.632,0,0,1,4.127-1.983,36.434,36.434,0,0,0,7.582,1.97c13.1,2.284,27.778-.938,27.69-3.13.941.31,1.755.529,2.424.766,4.315,1.454,3.94,3.514,5.266,3.445a.639.639,0,0,0,.656-.393,2.931,2.931,0,0,0-.307-2.372,8.285,8.285,0,0,0-4.446-3.717c-2.329-1.01-4.857-1.383-7.666-4.187a13.447,13.447,0,0,1-3.051-14.462c.828-2.18,2.775-4.924,2.034-7.684a3.873,3.873,0,0,0-1.225-2.12c12.885-5.174,21.025-16.5,26.8-29.015.516.046,1.554-.187,3.854-1.1,16.707-7.453,30.042-23.5,33.944-39.567.187-.773.41-1.429.561-2.3.613-3.836-1.4-5.172-5.178-5.327ZM153.122,36.3a7.707,7.707,0,0,1,2.234.43c1.254.643.291,1.852-.536,3.48A56.3,56.3,0,0,1,140.967,56.8c-2.518,2.039-4.234,3.172-5.237,3.959a138.82,138.82,0,0,0,5.817-26.039c.936.3,5.754.921,11.575,1.584ZM49.67,60.78A57.958,57.958,0,0,1,39.245,50.087c-2.407-3.249-5.686-8.885-6.411-11.665a2.923,2.923,0,0,1,1.318-3.489c3.4-1.937,7.635.46,10.627-1a135.1,135.1,0,0,0,4.89,26.85Zm-25.554-20.1c-.64-1.249-1.161-2.573-1.733-3.886-.839-1.987-1.75-5.314-.527-7.089,1.183-1.778,3.793-1.453,6.6-1.509,1.526-.016,14.645-.083,16-.616.052,2.133.151,4.075.306,6.134-2.583.357-3.815-.192-6.543-.561-2.578-.287-5.611.326-6.6,2.726-.755,1.7-.106,3.662.623,5.361a46.4,46.4,0,0,0,5.587,9.9c2.958,4.012,8.02,9.186,12.364,11.4,1.072,3.52,2.151,6.582,3.393,9.764-3.157-2.388-19.89-11.465-29.466-31.624ZM106.8,134.446c-2.6.187-12.908,2.172-24.866,1.7-2.344-.07-4.474-.218-6.046-.291,8.131-3.927,11.668-11.954,10.819-17.484a9.244,9.244,0,0,0-1.631-3.979c5.731,2.386,13.379,1.219,14.624-.252a15.5,15.5,0,0,0,7.1,20.31ZM99.909,113.68a1.656,1.656,0,0,0-.046-.611c-.423-1.878-2.009-.966-12.256-.439a18.134,18.134,0,0,0-3.62.392c-1.417-1.639-2.784-2.917-2.926-5.035a3.626,3.626,0,0,1,.618-2.356,29.5,29.5,0,0,0,20.663-.592c1.849,3.055-1.069,5.956-2.433,8.641Zm16.376-22.787c-8.906,10.259-22.557,16.237-35.18,11.074-6.873-2.75-12.681-8.286-16.938-14.709C55.232,73.746,46.51,49.51,45.473,22.423c.767-.111,3.46-.857,6.487-1.661,18.341-4.4,32.959-5.9,54.174-3.983,17.043,1.781,30.518,6.4,33.747,7.241a153.269,153.269,0,0,1-10.321,43.663c-3,7.262-6.709,15.6-13.276,23.21Z" transform="translate(-18.379 -1.869)"/>
      <path id="Path_1031" data-name="Path 1031" d="M55.181,105.047c-.488,0-.842,7.581-.823,11.111.035,6.442.431,6.575.919,6.572s.883-.139.848-6.581C56.106,112.618,55.669,105.044,55.181,105.047Z" transform="translate(0.555 50.843)"/>
      <path id="Path_1032" data-name="Path 1032" d="M64.4,122.11c-5.052.025-9.159-.031-9.175.219s4.072.734,9.14,1.03c11.379.7,28.273.114,29.1-.879,2.216.366,1.686-16.934,1.16-16.969-.738-.047-1.855,14.579-1.574,16.361-2.27-.508-15.262.218-28.651.238Z" transform="translate(1.013 51.087)"/>
      <path id="Path_1033" data-name="Path 1033" d="M92.716,105.223c-11.6-1.706-37.65-.835-37.622-.039.009.248,4.247.314,9.462.438,25.762.559,29.991,1.388,30.065.359.018-.243-.041-.469-1.905-.758Z" transform="translate(0.943 50.418)"/>
      <path id="Path_1034" data-name="Path 1034" d="M102.86,5.959c.969-2.617.618-2.809.16-2.979s-.848-.251-1.817,2.365c-.531,1.434-1.3,4.648-.841,4.817s1.967-2.77,2.5-4.2Z" transform="translate(24.693 -2.909)"/>
      <path id="Path_1035" data-name="Path 1035" d="M107.84,8.494c2.387-1.53,2.223-1.9,1.96-2.306s-.527-.712-2.913.818c-1.308.838-3.9,2.971-3.638,3.381s3.283-1.055,4.591-1.894Z" transform="translate(26.276 -1.358)"/>
      <path id="Path_1036" data-name="Path 1036" d="M104.545,12.13c-.031.487,4.182,1.153,6.157,1.28,3.6.231,3.7-.159,3.736-.645s-.019-.886-3.623-1.117c-1.975-.127-6.239,0-6.27.483Z" transform="translate(26.967 1.665)"/>
      <path id="Path_1037" data-name="Path 1037" d="M100.107,62.633c.4-1.05.224-1.189.01-1.3s-.434-.177-1.1.686c-.7.833-1.754,2.668-4.387,5.827-5.495,6.619-10.679,9.3-10.437,9.741s7.139-3,11.785-8.6a24.95,24.95,0,0,0,4.124-6.351Z" transform="translate(16.255 27.801)"/>
      <path id="Path_1038" data-name="Path 1038" d="M93.376,72.885a12.167,12.167,0,0,0,2.743-1.615c2.282-1.949,1.929-2.373,1.6-2.678-.621-.6-1.073-.079-5,3.225-.782.665-1.437,1.227-1.329,1.449s.977.042,1.978-.382Z" transform="translate(20.042 31.545)"/>
      <path id="Path_1039" data-name="Path 1039" d="M95.782,31.388l-13.873.921C75,23.624,76.331,25.3,73.364,21.585a3.219,3.219,0,0,0-5.657.777c-.3,1.046-3.138,12.765-3.392,13.815,0,.275-12.764,4.691-13.815,5.5a3.007,3.007,0,0,0,.3,4.937C60.9,52.774,62.937,54,62.694,53.854c.231.146.142.016.684,9.211.319,5.263.269,5.382.57,5.983a2.577,2.577,0,0,0,4.063.733c4.9-4.279,6.678-5.82,10.357-9.072a.852.852,0,0,1,.861-.26q27.118,6.7.336-1.48a2.282,2.282,0,0,0-2.229.512l-4.257,3.41-6.172,4.977a.565.565,0,0,1-.7.1c-.339-.191-.194.78-.652-14.088A2.833,2.833,0,0,0,64.114,51.5l-1.8-1.153c-4.62-2.958-.449-.291-9.435-6.039a.187.187,0,0,1,0-.337c3.926-1.43.335-.108,12.714-4.649a3.16,3.16,0,0,0,1.982-2.287c1.007-3.944,1.663-6.52,3.284-12.922h.014c3.071,3.862,1.323,1.671,8.384,10.513A3.219,3.219,0,0,0,81,35.744c.667.165-.135.185,14.416-.909.306-.134.166-.1-7.208,11.4a3,3,0,0,0-.192,2.916c6.385,14.922,5.954,12.712,5.815,12.922a.99.99,0,0,1-.574.937c-.237.136-.339.254-.377.419-.035.145-.077.341.358.522a1.964,1.964,0,0,0,2.371-1.729c.177-.7-.393-2.065-1.68-5.779-1.891-5.148-1.34-3.667-2.582-6.958-.54-1.415-.654-1.533-.514-1.686l4.339-6.382c3.726-5.536,4.151-5.831,3.955-7.29a3.158,3.158,0,0,0-3.347-2.742Z" transform="translate(-2.079 6.205)"/>
    </g>
  </g>
  <g id="Group_2381" data-name="Group 2381" transform="translate(65.857 57.224)">
    <g id="Group_2380" data-name="Group 2380">
      <g id="Group_2379" data-name="Group 2379">
        <path id="Path_1040" data-name="Path 1040" d="M62.411,51.594c-.488,0-.883-.085-.883-4.163,0-2.234.4-7.03.883-7.03s.883,4.8.883,7.03C63.294,51.509,62.9,51.594,62.411,51.594Z" transform="translate(-61.528 -40.402)" fill="#fff"/>
      </g>
    </g>
  </g>
  <g id="Group_2384" data-name="Group 2384" transform="translate(65.224 49.574)">
    <g id="Group_2383" data-name="Group 2383">
      <g id="Group_2382" data-name="Group 2382">
        <path id="Path_1041" data-name="Path 1041" d="M62.191,38.449c-.482.076-.876.115-1.052-1-.1-.61.086-1.982.568-2.058s1.08,1.171,1.176,1.782c.176,1.113-.211,1.2-.692,1.275Z" transform="translate(-61.113 -35.39)" fill="#fff"/>
      </g>
    </g>
  </g>
</svg>
