<svg xmlns="http://www.w3.org/2000/svg" width="19.601" height="19.601" viewBox="0 0 19.601 19.601">
  <defs>
    <style>
      .cls-1 {
        fill: #3c5774;
      }
    </style>
  </defs>
  <g id="Layer_1" transform="translate(-2 -2)">
    <g id="Group_14" data-name="Group 14" transform="translate(12.5 11.1)">
      <path id="Path_23" data-name="Path 23" class="cls-1" d="M24.372,25.5H18.728A1.731,1.731,0,0,1,17,23.772V16.728A1.731,1.731,0,0,1,18.728,15h5.644A1.731,1.731,0,0,1,26.1,16.728v7.044A1.731,1.731,0,0,1,24.372,25.5Zm-5.644-9.1a.328.328,0,0,0-.328.328v7.044a.328.328,0,0,0,.328.328h5.644a.328.328,0,0,0,.328-.328V16.728a.328.328,0,0,0-.328-.328Z" transform="translate(-17 -15)"/>
    </g>
    <g id="Group_15" data-name="Group 15" transform="translate(12.5 2)">
      <path id="Path_24" data-name="Path 24" class="cls-1" d="M24.372,9.7H18.728A1.731,1.731,0,0,1,17,7.972V3.728A1.731,1.731,0,0,1,18.728,2h5.644A1.731,1.731,0,0,1,26.1,3.728V7.972A1.731,1.731,0,0,1,24.372,9.7ZM18.728,3.4a.328.328,0,0,0-.328.328V7.972a.328.328,0,0,0,.328.328h5.644a.328.328,0,0,0,.328-.328V3.728a.328.328,0,0,0-.328-.328Z" transform="translate(-17 -2)"/>
    </g>
    <g id="Group_16" data-name="Group 16" transform="translate(2 2)">
      <path id="Path_25" data-name="Path 25" class="cls-1" d="M9.372,12.5H3.728A1.731,1.731,0,0,1,2,10.772V3.728A1.731,1.731,0,0,1,3.728,2H9.372A1.731,1.731,0,0,1,11.1,3.728v7.044A1.731,1.731,0,0,1,9.372,12.5ZM3.728,3.4a.328.328,0,0,0-.328.328v7.044a.328.328,0,0,0,.328.328H9.372a.328.328,0,0,0,.328-.328V3.728A.328.328,0,0,0,9.372,3.4Z" transform="translate(-2 -2)"/>
    </g>
    <g id="Group_17" data-name="Group 17" transform="translate(2 13.9)">
      <path id="Path_26" data-name="Path 26" class="cls-1" d="M9.372,26.7H3.728A1.731,1.731,0,0,1,2,24.972V20.728A1.731,1.731,0,0,1,3.728,19H9.372A1.731,1.731,0,0,1,11.1,20.728v4.244A1.731,1.731,0,0,1,9.372,26.7ZM3.728,20.4a.328.328,0,0,0-.328.328v4.244a.328.328,0,0,0,.328.328H9.372a.328.328,0,0,0,.328-.328V20.728a.328.328,0,0,0-.328-.328Z" transform="translate(-2 -19)"/>
    </g>
  </g>
</svg>
