<svg xmlns="http://www.w3.org/2000/svg" xmlns:xlink="http://www.w3.org/1999/xlink" width="16.443" height="16.169" viewBox="0 0 16.443 16.169">
  <defs>
    <style>
      .default {
        fill: #9b9b9b;
      }

      .cls-2 {
        clip-path: url(#clip-path);
      }

      .cls-3 {
        clip-path: url(#clip-path-2);
      }
    </style>
    <clipPath id="clip-path">
      <path id="Path_1482" data-name="Path 1482" class="default" d="M139.21,573h16.443v1.382H139.21Z" transform="translate(-139.21 -573)"/>
    </clipPath>
    <clipPath id="clip-path-2">
      <path id="Path_1484" data-name="Path 1484" class="default" d="M356,494h8.916v1.389H356Z" transform="translate(-356 -494)"/>
    </clipPath>
  </defs>
  <g id="download_11_" data-name="download (11)" transform="translate(-139.21 -147.103)">
    <path id="Path_1480" data-name="Path 1480" class="default" d="M179.358,160.531h2.877a.622.622,0,0,0,.48-.205l1.439-1.439,7.81-7.742a.662.662,0,0,0,0-.959l-2.877-2.877a.662.662,0,0,0-.959,0l-9.249,9.112a.778.778,0,0,0-.206.548v2.877a.647.647,0,0,0,.685.685Zm9.18-11.853,1.918,1.918-6.783,6.783-1.918-1.918Zm-8.5,8.564.754-.822,1.918,1.918-.754.822h-1.918Z" transform="translate(-38.093)"/>
    <g id="Group_4134" data-name="Group 4134" class="cls-2" transform="translate(139.21 161.89)">
      <path id="Path_1481" data-name="Path 1481" class="default" d="M154.974,573.33H139.9a.685.685,0,1,0,0,1.37h15.073a.685.685,0,1,0,0-1.37Z" transform="translate(-139.216 -573.319)"/>
    </g>
    <g id="Group_4135" data-name="Group 4135" class="cls-3" transform="translate(146.737 159.147)">
      <path id="Path_1483" data-name="Path 1483" class="default" d="M356.27,495.081a.647.647,0,0,0,.685.685h7.536a.685.685,0,1,0,0-1.37h-7.536a.647.647,0,0,0-.685.685Z" transform="translate(-356.261 -494.382)"/>
    </g>
  </g>
</svg>
