<svg xmlns="http://www.w3.org/2000/svg" width="18.802" height="18.801" viewBox="0 0 18.802 18.801">
    <g id="seauser" transform="translate(-186.572 -186.573)">
      <path id="Path_1276" data-name="Path 1276" d="M189.583,200.177a7.5,7.5,0,0,0,4.553,1.524q.312,0,.619-.025a7.45,7.45,0,0,0,3.453-1.165l3.668,4.118a1.96,1.96,0,0,0,1.425.742c.038,0,.075,0,.113,0a1.96,1.96,0,0,0,1.232-3.485l-4.131-3.675a7.568,7.568,0,1,0-10.931,1.963Zm4.022.72c-.058,0-.116-.013-.173-.019-.117-.012-.234-.024-.35-.042-.068-.01-.134-.025-.2-.037-.1-.02-.21-.039-.313-.064-.07-.016-.139-.036-.208-.055-.1-.027-.2-.055-.3-.086-.069-.022-.138-.047-.206-.071-.1-.034-.192-.07-.286-.109q-.1-.041-.2-.086-.141-.063-.279-.133c-.064-.032-.127-.065-.19-.1-.093-.051-.185-.1-.276-.16-.059-.036-.119-.072-.177-.11-.028-.018-.054-.038-.081-.056a4.752,4.752,0,0,1,7.539,0c-.026.017-.051.036-.077.053-.062.041-.125.079-.189.117-.087.053-.174.1-.263.153-.066.036-.133.071-.2.1q-.134.067-.269.129c-.069.031-.138.061-.208.09-.092.038-.185.072-.278.106-.071.025-.141.051-.213.073-.1.031-.193.058-.29.084-.071.019-.141.039-.213.056-.1.024-.206.044-.309.063-.068.013-.136.027-.2.038-.115.018-.232.03-.349.042-.059.006-.117.015-.176.019-.176.014-.353.021-.532.021s-.355-.008-.531-.021Zm10.537,1.593a1.176,1.176,0,0,1,.1,1.756,1.144,1.144,0,0,1-.9.344,1.19,1.19,0,0,1-.87-.463l-3.629-4.076a7.608,7.608,0,0,0,1.207-1.2Zm-10.006-15.133a6.788,6.788,0,0,1,6.78,6.781,6.711,6.711,0,0,1-2.391,5.168,5.51,5.51,0,0,0-8.779,0,6.709,6.709,0,0,1-2.391-5.168,6.788,6.788,0,0,1,6.781-6.781Z" transform="translate(0 0)" fill="#3c5774"/>
      <path id="Path_1277" data-name="Path 1277" d="M12.561,5.913A2.654,2.654,0,0,0,9.91,8.563v.9a2.651,2.651,0,0,0,5.3,0v-.9A2.654,2.654,0,0,0,12.561,5.913Zm1.867,3.554a1.867,1.867,0,1,1-3.733,0v-.9a1.867,1.867,0,1,1,3.733,0Z" transform="translate(181.628 183.703)" fill="#3c5774"/>
    </g>
  </svg>
  