<svg xmlns="http://www.w3.org/2000/svg" width="18.576" height="19.84" viewBox="0 0 18.576 19.84">
  <path id="tiles" d="M34.878,9.92a1.9,1.9,0,0,0-.984-1.675l-.664-.371.664-.371a1.918,1.918,0,0,0,0-3.35L27.2.416a3.33,3.33,0,0,0-3.225,0L17.286,4.152a1.918,1.918,0,0,0,0,3.35l.664.371-.664.371a1.918,1.918,0,0,0,0,3.35l.664.371-.664.371a1.918,1.918,0,0,0,0,3.35l6.691,3.736a3.33,3.33,0,0,0,3.225,0l.081-.045a.775.775,0,0,0-.756-1.354l-.081.045a1.769,1.769,0,0,1-1.713,0l-6.691-3.736a.367.367,0,0,1,0-.643l1.5-.837,4.437,2.477a3.33,3.33,0,0,0,3.225,0l4.437-2.477,1.5.837a.367.367,0,0,1,0,.643l-3.225,1.8a.775.775,0,1,0,.756,1.354l3.225-1.8a1.918,1.918,0,0,0,0-3.35l-.664-.371.664-.371A1.9,1.9,0,0,0,34.878,9.92ZM17.852,5.827a.356.356,0,0,1,.19-.321L24.733,1.77a1.769,1.769,0,0,1,1.713,0l6.691,3.736a.367.367,0,0,1,0,.643L26.447,9.885a1.769,1.769,0,0,1-1.713,0L18.042,6.149A.356.356,0,0,1,17.852,5.827Zm15.286,4.414-6.691,3.736a1.769,1.769,0,0,1-1.713,0l-6.691-3.736a.367.367,0,0,1,0-.643l1.5-.837,4.437,2.477a3.33,3.33,0,0,0,3.225,0l4.437-2.477,1.5.837a.367.367,0,0,1,0,.643Z" transform="translate(-16.302 0)" fill="#37bdf2"/>
</svg>
