<svg id="folder2" xmlns="http://www.w3.org/2000/svg" width="105.838" height="86.669" viewBox="0 0 105.838 86.669">
  <path id="Path_129" data-name="Path 129" d="M116.685,39.675V52.023a8.215,8.215,0,0,0-8.208-8.208H76.443a7.056,7.056,0,0,1-6.362-4.01l-4.4-9.149a5.678,5.678,0,0,0-.353-.647h41.688A9.667,9.667,0,0,1,116.685,39.675Z" transform="translate(-10.847 -26.646)" fill="#b0e8ff"/>
  <path id="Path_130" data-name="Path 130" d="M124.838,52.526V105.6a8.218,8.218,0,0,1-8.208,8.22H27.208A8.218,8.218,0,0,1,19,105.6V35.369a8.218,8.218,0,0,1,8.208-8.22H67.474a7.056,7.056,0,0,1,6.009,3.363,5.668,5.668,0,0,1,.353.647l4.4,9.149a7.056,7.056,0,0,0,6.362,4.01h32.034A8.215,8.215,0,0,1,124.838,52.526Z" transform="translate(-19 -27.149)" fill="#e4f7ff"/>
</svg>
