<svg id="calendar" xmlns="http://www.w3.org/2000/svg" width="29.651" height="29.651" viewBox="0 0 29.651 29.651">
  <path id="Path_1100" data-name="Path 1100" d="M26.254,69.848H3.4a3.4,3.4,0,0,1-3.4-3.4V46.065a3.4,3.4,0,0,1,3.4-3.4H26.254a3.4,3.4,0,0,1,3.4,3.4V66.451A3.4,3.4,0,0,1,26.254,69.848ZM3.4,44.521a1.546,1.546,0,0,0-1.544,1.544V66.451A1.547,1.547,0,0,0,3.4,68H26.254A1.547,1.547,0,0,0,27.8,66.451V46.065a1.546,1.546,0,0,0-1.544-1.544Zm0,0" transform="translate(0 -40.197)" fill="#9b9b9b"/>
  <path id="Path_1101" data-name="Path 1101" d="M28.725,172.521H.927a.927.927,0,0,1,0-1.853h27.8a.927.927,0,1,1,0,1.853Zm0,0" transform="translate(0 -160.784)" fill="#9b9b9b"/>
  <path id="Path_1102" data-name="Path 1102" d="M107.595,7.413a.927.927,0,0,1-.927-.927V.927a.927.927,0,0,1,1.853,0v5.56A.927.927,0,0,1,107.595,7.413Zm0,0" transform="translate(-100.491)" fill="#9b9b9b"/>
  <path id="Path_1103" data-name="Path 1103" d="M374.259,7.413a.927.927,0,0,1-.927-.927V.927a.927.927,0,0,1,1.853,0v5.56A.927.927,0,0,1,374.259,7.413Zm0,0" transform="translate(-351.711)" fill="#9b9b9b"/>
</svg>
