<svg xmlns="http://www.w3.org/2000/svg" width="22.215" height="22.215" viewBox="0 0 22.215 22.215">
  <defs>
    <style>
      .cls-1 {
        fill: #37bdf2;
      }
    </style>
  </defs>
  <path id="tupperware" class="cls-1" d="M21.347,14.4h-.213l-1.2-4.186a2.614,2.614,0,0,0-2.5-1.888H4.78a2.614,2.614,0,0,0-2.5,1.888L1.081,14.4H.868a.868.868,0,1,0,0,1.736h.213l1.2,4.186a2.614,2.614,0,0,0,2.5,1.888H17.435a2.614,2.614,0,0,0,2.5-1.888l.434-1.518a.868.868,0,0,0-1.669-.477l-.434,1.518a.871.871,0,0,1-.834.629H4.78a.871.871,0,0,1-.834-.629l-1.06-3.709H8.052l.652.931a.868.868,0,0,0,.711.37h3.428a.868.868,0,0,0,.711-.37l.652-.931h7.141a.868.868,0,1,0,0-1.736Zm-7.593,0a.868.868,0,0,0-.711.37l-.652.931H9.867l-.652-.931A.868.868,0,0,0,8.5,14.4H2.886L3.946,10.7a.871.871,0,0,1,.834-.629H17.435a.871.871,0,0,1,.834.629l1.06,3.709ZM4.225,6.554a8.269,8.269,0,0,0,2.594.388,3.828,3.828,0,0,0,1.969-.486,2.985,2.985,0,0,0,1.424-2.118h8.965a.868.868,0,0,0,0-1.736H10.214A2.978,2.978,0,0,0,8.8.487,3.837,3.837,0,0,0,6.819,0,8.169,8.169,0,0,0,4.21.389,3.193,3.193,0,0,0,1.779,3.471,3.2,3.2,0,0,0,4.225,6.554ZM4.774,2.03a6.528,6.528,0,0,1,2.045-.295,2.151,2.151,0,0,1,1.1.244c.157.093.636.378.636,1.492s-.487,1.4-.647,1.49a2.135,2.135,0,0,1-1.088.245c-.775,0-3.3-.125-3.3-1.736,0-.469.143-1.057,1.26-1.441Zm0,0"/>
</svg>
