<svg id="Group_3219" data-name="Group 3219" xmlns="http://www.w3.org/2000/svg" width="14.682" height="22.517" viewBox="0 0 14.682 22.517">
    <path id="Path_1250" data-name="Path 1250" d="M103.752,4.043a1.777,1.777,0,0,0-1.775-1.775H98.356V.44a.44.44,0,0,0-.44-.44H94.906a.44.44,0,0,0-.44.44V2.268H90.844A1.776,1.776,0,0,0,89.07,4.043v16.7a1.776,1.776,0,0,0,1.774,1.775h11.134a1.777,1.777,0,0,0,1.775-1.775V9.863a.44.44,0,0,0-.88,0V20.742a.9.9,0,0,1-.895.895H90.844a.9.9,0,0,1-.895-.895V4.043a.9.9,0,0,1,.895-.895h3.622V4.537h-.445a.44.44,0,0,0,0,.88H98.8a.44.44,0,1,0,0-.88h-.445V3.148h3.622a.9.9,0,0,1,.895.895V10.5a.44.44,0,1,0,.88,0V4.043ZM97.477.88V2.707h0V4.537H95.346V2.708s0,0,0,0V.88Z" transform="translate(-89.07)" fill="#3c5774"/>
    <path id="Path_1251" data-name="Path 1251" d="M162.977,157.077a1.176,1.176,0,0,0,.27-.747v-6.249a1.172,1.172,0,0,0-1.171-1.171h-6.6a1.172,1.172,0,0,0-1.171,1.171v6.249a1.183,1.183,0,0,0,1.171,1.171h6.6A1.178,1.178,0,0,0,162.977,157.077Zm-.609-7v4.989a2.391,2.391,0,0,0-.886-.571l-1.11-.4a.144.144,0,0,1-.093-.117l-.051-.384a2.231,2.231,0,0,0,.784-1.7v-.75a2.224,2.224,0,0,0-.46-1.356h1.526a.292.292,0,0,1,.291.291Zm-.2,6.525a.3.3,0,0,1-.092.015h-6.6a.3.3,0,0,1-.1-.016l.017-.1a1.515,1.515,0,0,1,.975-1.175l1.108-.4a1.021,1.021,0,0,0,.666-.828l.007-.05a2.26,2.26,0,0,0,1.248,0l.007.05a1.02,1.02,0,0,0,.665.828l1.11.4a1.515,1.515,0,0,1,.975,1.175l.017.1Zm-2.037-5.46v.75a1.356,1.356,0,0,1-2.712,0v-.75a1.356,1.356,0,0,1,2.712,0Zm-4.658-1.356H157a2.224,2.224,0,0,0-.46,1.356v.75a2.231,2.231,0,0,0,.784,1.7l-.051.384a.144.144,0,0,1-.095.117l-1.109.4a2.39,2.39,0,0,0-.887.572v-4.99A.292.292,0,0,1,155.474,149.79Z" transform="translate(-151.434 -142.361)" fill="#3c5774"/>
    <path id="Path_1253" data-name="Path 1253" d="M168.3,432.349a.44.44,0,0,0,.44.44h6.834a.44.44,0,0,0,0-.88h-6.834A.44.44,0,0,0,168.3,432.349Z" transform="translate(-164.819 -413.932)" fill="#3c5774"/>
  </svg>
  