<svg xmlns="http://www.w3.org/2000/svg" width="25.171" height="28.005" viewBox="0 0 25.171 28.005">
  <defs>
    <style>
      .cls-1 {
        fill: #9b9b9b;
      }
    </style>
  </defs>
  <g id="_28" data-name="28" transform="translate(-3.415 -2)">
    <path id="Path_51" data-name="Path 51" class="cls-1" d="M28.07,22.66,26.36,20.2A2,2,0,0,1,26,19.06V12A10,10,0,1,0,6,12v7.06a2,2,0,0,1-.36,1.14L3.93,22.66A2,2,0,0,0,5.41,26H11.1a5,5,0,0,0,9.8,0h5.69a2,2,0,0,0,1.48-3.34ZM16,28a3,3,0,0,1-2.82-2h5.64A3,3,0,0,1,16,28ZM5.41,24a.81.81,0,0,0,.12-.14l1.75-2.52A4,4,0,0,0,8,19.06V12a8,8,0,0,1,16,0v7.06a4,4,0,0,0,.72,2.28l1.75,2.52a.81.81,0,0,0,.12.14Z"/>
  </g>
</svg>
