<svg id="Group_2489" data-name="Group 2489" xmlns="http://www.w3.org/2000/svg" width="228.166" height="244.141" viewBox="0 0 228.166 244.141">
  <g id="Group_2481" data-name="Group 2481" transform="translate(74.212 7.172)">
    <g id="Group_2480" data-name="Group 2480">
      <path id="Path_1069" data-name="Path 1069" d="M48.75,48.489a58,58,0,0,0,15.618,54.5c8.465,8.2,20.38,13.789,31.973,11.657,8.737-1.607,16.207-7.343,22.119-13.974,13.866-15.552,20.773-37.992,14.87-57.973A48.8,48.8,0,0,0,102.44,10.745c-16.283-5.3-29.673,1.284-40.755,13.636A56.852,56.852,0,0,0,48.75,48.489Z" transform="translate(-47.163 -8.896)" fill="#37bdf2"/>
    </g>
  </g>
  <g id="Group_2484" data-name="Group 2484" transform="translate(87.516 59.23)">
    <g id="Group_2483" data-name="Group 2483" transform="translate(0)">
      <g id="Group_2482" data-name="Group 2482">
        <path id="Path_1070" data-name="Path 1070" d="M56.268,35.487c.3.089.556.232.424,1.513a47.441,47.441,0,0,0-.429,8.591,34.639,34.639,0,0,0,2.2,10.128c1.268,3.336,2.941,5.784,2.673,5.993-.213.189-2.4-1.967-4.134-5.329a28.334,28.334,0,0,1-2.134-5.49A28.042,28.042,0,0,1,54,45.739a21.2,21.2,0,0,1,1.136-9.127c.55-1.255.833-1.214,1.133-1.125Z" transform="translate(-53.949 -35.448)" fill="#fff"/>
      </g>
    </g>
  </g>
  <g id="Group_2487" data-name="Group 2487" transform="translate(94.092 35.415)">
    <g id="Group_2486" data-name="Group 2486">
      <g id="Group_2485" data-name="Group 2485">
        <path id="Path_1071" data-name="Path 1071" d="M63.913,23.519c.237.205.43.416.166,1.047-.244.646-.994,1.674-2.277,3.8-.7,1.163-1.777,3.02-2.582,4.667C58.4,34.669,57.8,36.073,57.489,36s-.248-1.638.224-3.519a20.682,20.682,0,0,1,2.139-5.277,11.952,11.952,0,0,1,2.992-3.664c.6-.4.832-.227,1.069-.022Z" transform="translate(-57.303 -23.301)" fill="#fff"/>
      </g>
    </g>
  </g>
  <g id="Group_2488" data-name="Group 2488">
    <path id="Path_1072" data-name="Path 1072" d="M237.447,228.453a.852.852,0,0,0-.266-.51c.864-.742.511-3.027-11.219-22.616-6.167-10.3-19.287-30.65-22.905-34.636a1.155,1.155,0,0,0,.541-1.328c-.116-.616-.292-1.159-2.4-1.158-5.952.021-18.222,4.445-29.579,7.407-5.115,1.35-9.345,2.372-9.762,3.022.392-3.555-35.878-15.153-39.2-16.217.409-8.836.878-22.315.085-31.166,3.036.055,6.284-.262,8.36-2.5,1.78-1.936,1.808-5.078.266-6.655,31.923-5.381,50.912-46,40.213-80.31A51.256,51.256,0,0,0,116.03,5.663C90.731,8.9,73.543,31.824,70.689,56.179c-2.889,24.972,10.09,48.157,30.835,59.989a48.78,48.78,0,0,0,11.831,4.67c-2.057-.209,2.3,1.1,5.985,1.541l-2.564.171c.041-.115-1.082-.208-1.928,1.11a4.583,4.583,0,0,0,.746,5.4c1.711,1.718,4.246,2.1,6.668,2.18-.275,3.7-.2,8.761-1.691,30.512-6.542-2.067-11.8-3.638-12.435-3.277-4.947-.771-27.859,3.294-42.625,7.064-7.487,1.891-13.471,3.772-13.341,4.378.275,1.282,35.077-4.449,36.321-4.661,19.592-3.271,21.092-4.344,21.034-5.505,3.4,2.05,10.623,5.2,10.825,5.3a203.579,203.579,0,0,0-.011,31.05,17.894,17.894,0,0,0,.433,2.742c-.305.1-.728.24-.971.32-3.76-2.881-4.808-2.918-1.792.684-2.592,1.057-5.83,2.622-5.668,3.092.181.523,4.5-.484,7.233-1.32.6.649,1.187,1.246,1.656,1.686,3.317,3.113,3.734,2.808,4.163,2.351s.707-.892-2.61-4.005c-.261-.245-.58-.526-.922-.821,3.22-1.212,3.168-1.682,2.985-2.21-.169-.489-.416-.86-3.047-.1.544-3.963-.389-9.574.689-32.541,6.468,2.8,13.706,5.68,18.522,7.477,18.444,6.919,20.326,7.046,20.812,5.341a.434.434,0,0,0,.254.173c-1.4,3.267-4.408,29.815-5.429,42.659-1.991,25.044-1.02,25.649.229,25.748s2.3-.344,4.295-25.388c1.015-12.764,2.234-39.188,1.394-42.9a45.092,45.092,0,0,0,9.645-.322c11.463-1.268,27.915-6.549,30.141-7.652,2.244,6.3,16.2,30.721,21.134,38.9a19.933,19.933,0,0,0-2.074-.594c.945,2.838.608,1.993.733,2.568a1.34,1.34,0,0,1-.029.692,3.716,3.716,0,0,1-.2.521,4.774,4.774,0,0,1-1.947,2.008c-3.531,2.336-8.864-1.933-12.564-3.427-3.184-1.258-6.478-1.626-9.2.494-2.485,2-3.356,5.222-4.31,8.215-5.227,16.784-5.092,18.287,1.518.518a28.766,28.766,0,0,1,2.268-5.2,5.6,5.6,0,0,1,4-2.87c6.355-.91,12.614,8.327,19.4,4.127a6.336,6.336,0,0,0,2.991-3.949,4.376,4.376,0,0,0,.081-.713.534.534,0,0,0-.081-.314c-.032-.1.139-.036.235-.055a2.682,2.682,0,0,1,.453.078c6.143,10.1,8.956,14.047,10.436,15.455-6.554.048-22.824,4.1-29.153,5.758-5.772,1.5-47.478,13.885-50.6,15.5a1.082,1.082,0,0,0,.219-.407c.409-1.185.219-2.325-24.694-10.92-12.327-4.253-37.673-12.122-42.778-12.737,1.745-1.518,3.767-10.316,11.59-34.292,5.538,2.4,11.492-3.338,9.507-9.4-.3-.951-.619-1.718-.793-2.345-.7-2.464.651-2.628,1.9-4.646a2.981,2.981,0,0,0,.431-2.675c-.327-1-1.291-2.056-2.323-1.851-.488.088-.9.469-.58.866.194.305.561.175.794.686,1.56,2.511-3.933,3-2.4,8.245.514,1.81,1.347,2.889,1.205,4.836-.2,3.452-3.247,6.219-7.519,5.618,5.452-16.671,9.584-27.273,8.818-27.617-1.127-.509-11.343,20.312-17.015,38.3-1.582,5.015-5.137,16.863-5.4,22.157-10.514.036-55.5,11.262-73.94,20.2.215-.313.445-.661.7-1.066,3.764-5.842,14.306-26.944,25.084-46.014,7.385,1.213,10.769,8.035,8.673,13.608-.507,1.4-1.3,2.754-1.934,4.153-2,4.236-1.306,8.681,2.275,10.012,3.4,1.166,6.544-.425,8.147,2.526.564,1.12-.1,1.42.3,1.866.1.116.206.229.567.046,1.614-1.013.609-4.4-2.285-5.529-3.006-1.142-8.01.676-7.862-4.573.025-2.562,1.813-4.88,2.776-7.831,2.339-7.034-2.824-14.889-10.329-14.848,8.118-14.326,14.656-24.258,14.048-24.7-.485-.356-6.4,6.753-12.834,16.173C27.38,204.619,14.636,229.212,10.3,240.35c-1.454,3.832-1.019,4.231-.458,4.51.375.187.771.27,1.638-.714,2.491-.338,9.535-2.284,17.858-4.469,25.9-6.89,52.717-12.046,57.98-14.7l.022,0c1.414,1.754,28.946,12.258,42.151,16.814,19.516,6.733,24.266,7.713,25.6,7.251-1.717,1.447,16.075-2.322,20.04-3.237,10.358-2.363,57.181-14.542,58.517-14.968,3.862-1.189,3.917-1.778,3.8-2.393ZM117.413,121.3c.443-.053.538-.2.575-.372.293-1.33-4.8-1.521-14.845-7.533C83.636,100.9,72.353,79.623,75.1,56.708c2.738-22.4,18.509-43.638,41.5-46.636,20.762-2.878,43.463,8.719,51.39,32.87,11.878,36.265-11.125,81.974-50.583,78.363Z" transform="translate(-9.311 -5.238)"/>
    <path id="Path_1073" data-name="Path 1073" d="M74.755,103.816c3.529-3.834,8.074-5.908,11.095-7.708,3.095-1.745,4.841-3.12,4.749-3.246s-1.964.973-5.159,2.463c-3.118,1.564-7.842,3.381-11.855,7.393-5.393,5.494-5.228,12.765-1.471,16.481,3.952,3.9,9.451,3.363,13.322,6.535,5.412,4.326-1.222,9.935.77,15.658,1.117,3.306,4.291,4.892,7.731,5.621,3.946.67,4.123.19,4.162-.059.137-.821-3.671-1-6.938-2.823-6.558-3.8-.825-9.389-1.341-14.975a7.607,7.607,0,0,0-2.951-5.181c-4.122-3.39-10.014-3.1-13.287-6.264-3-2.821-3.4-8.831,1.173-13.894Z" transform="translate(48.409 78.922)"/>
    <path id="Path_1074" data-name="Path 1074" d="M100.828,47.112a39.2,39.2,0,0,0,.471-10.135c-.208-1.49-.492-1.54-.8-1.536-1.154.015-.687,3-1.909,11.328-1.679,11.572-5.028,18.51-4.476,18.769C94.726,65.839,99.485,56.382,100.828,47.112Z" transform="translate(72.085 23.774)"/>
    <path id="Path_1075" data-name="Path 1075" d="M101.665,46.762c.912-3.582.439-3.782-.168-3.937s-1.119-.2-2.031,3.377c-.5,1.963-1.08,6.3-.473,6.454s2.172-3.932,2.672-5.895Z" transform="translate(76.586 30.817)"/>
    <path id="Path_1076" data-name="Path 1076" d="M129.484,115.048c.515-.357.832-.791-3.952-7.681-2.621-3.775-8.664-11.587-9.178-11.23s4.693,8.749,7.314,12.524c4.784,6.89,5.3,6.744,5.816,6.387Z" transform="translate(93.478 82.066)"/>
  </g>
</svg>
