<svg xmlns="http://www.w3.org/2000/svg" width="80.402" height="61" viewBox="0 0 80.402 61">
  <g id="Organisation_Heirarchy_Diagram" data-name="Organisation Heirarchy Diagram" transform="translate(0 -50)">
    <g id="Group_2353" data-name="Group 2353" transform="translate(0 50)">
      <path id="Path_1025" data-name="Path 1025" d="M77.142,88.649H70.779V80.422a1.466,1.466,0,0,0-1.552-1.552H41.753V72.2h6.364a3.183,3.183,0,0,0,3.26-3.26V53.26A3.183,3.183,0,0,0,48.117,50H32.285a3.183,3.183,0,0,0-3.26,3.26V69.092a3.183,3.183,0,0,0,3.26,3.26h6.364V78.87H11.176a1.466,1.466,0,0,0-1.552,1.552v8.226H3.26A3.183,3.183,0,0,0,0,91.908V107.74A3.183,3.183,0,0,0,3.26,111H19.092a3.183,3.183,0,0,0,3.26-3.26V91.908a3.183,3.183,0,0,0-3.26-3.26H12.728V81.975H38.649v6.674H32.285a3.183,3.183,0,0,0-3.26,3.26V107.74a3.183,3.183,0,0,0,3.26,3.26H48.117a3.183,3.183,0,0,0,3.26-3.26V91.908a3.183,3.183,0,0,0-3.26-3.26H41.753V81.975H67.674v6.674H61.31a3.183,3.183,0,0,0-3.26,3.26V107.74A3.183,3.183,0,0,0,61.31,111H77.142a3.183,3.183,0,0,0,3.26-3.26V91.908A3.279,3.279,0,0,0,77.142,88.649Zm-57.9,3.26c-.155-.155,0-.155,0,0V107.74c0,.155,0,.155-.155.155H3.26c-.155,0-.155,0-.155-.155V91.908c0-.155,0-.155.155-.155Zm29.025,0c-.155-.155,0-.155,0,0V107.74c0,.155,0,.155-.155.155H32.285c-.155,0-.155,0-.155-.155V91.908c0-.155,0-.155.155-.155ZM32.13,68.936c.155.155,0,.155,0,0V53.26c0-.155,0-.155.155-.155H48.117c.155,0,.155,0,.155.155V69.092c0,.155,0,.155-.155.155ZM77.3,107.585c0,.155-.155.155,0,0l-15.987.155c-.155,0-.155,0-.155-.155V91.908c0-.155,0-.155.155-.155H77.142c.155,0,.155,0,.155.155Z" transform="translate(0 -50)" fill="#1a8ef1"/>
    </g>
  </g>
</svg>
