<svg xmlns="http://www.w3.org/2000/svg" width="55.12" height="48.27" viewBox="0 0 55.12 48.27">
  <defs>
    <style>
      .cls-1 {
        fill: #30455c;
      }

      .cls-2 {
        fill: #fff;
      }
    </style>
  </defs>
  <g id="pixelkube-logo" transform="translate(-6.62 -17.793)">
    <rect id="Rectangle_1586" data-name="Rectangle 1586" class="cls-1" width="23.387" height="23.387" transform="matrix(0.7, 0.714, -0.714, 0.7, 36.942, 17.793)"/>
    <rect id="Rectangle_1587" data-name="Rectangle 1587" class="cls-2" width="23.387" height="23.387" transform="matrix(0.7, 0.714, -0.714, 0.7, 33.05, 17.86)"/>
    <rect id="Rectangle_1588" data-name="Rectangle 1588" class="cls-1" width="23.387" height="23.387" transform="matrix(0.7, 0.714, -0.714, 0.7, 31.19, 17.859)"/>
    <g id="Group_183" data-name="Group 183" transform="translate(6.62 57.473)">
      <g id="Group_182" data-name="Group 182">
        <path id="Path_115" data-name="Path 115" class="cls-1" d="M8.521,161.013H6.62V156.53h1.9Zm1.644-8.573a2.95,2.95,0,0,1,2.446.952,3.072,3.072,0,0,1,.536,1.7v.118A2.944,2.944,0,0,1,12.582,157q-.76,1.025-3.012.952H6.62V156.38s3.265-.009,3.719-.062a1.034,1.034,0,0,0,.9-1.164V155a1.09,1.09,0,0,0-1.073-1.017H6.62V152.44h3.545Z" transform="translate(-6.62 -152.44)"/>
        <path id="Path_116" data-name="Path 116" class="cls-1" d="M32.641,161.464h-1.9V153.08h1.9Z" transform="translate(-23.632 -152.891)"/>
        <path id="Path_117" data-name="Path 117" class="cls-1" d="M46.712,153.12l-4.907,8.39h-2.1l4.907-8.39Zm-6.984,0h2.1l1.238,2.119-1.055,1.774Zm7,8.39h-2.1l-1.255-2.131,1.031-1.827Z" transform="translate(-29.959 -152.92)"/>
        <path id="Path_118" data-name="Path 118" class="cls-1" d="M71.085,153.14v1.541H65.48V153.14Zm-1.624,3.168v1.541H65.48v-1.541Zm1.639,3.648V161.5H65.48v-1.541Z" transform="translate(-48.134 -152.934)"/>
        <path id="Path_119" data-name="Path 119" class="cls-1" d="M89.5,161.464H87.6V153.08h1.9Zm3.751-1.544v1.541H89.33V159.92Z" transform="translate(-63.736 -152.891)"/>
      </g>
    </g>
    <path id="Path_120" data-name="Path 120" class="cls-1" d="M111.66,161.865h-1.42V153.69h1.42Zm-1.126-.295h.831v-7.585h-.831Z" transform="translate(-73.084 -95.849)"/>
    <path id="Path_121" data-name="Path 121" class="cls-1" d="M114.06,159.887v-1.88l3.454-4.317h1.5Zm.295-1.777v.934l4.049-5.06h-.749Z" transform="translate(-75.778 -95.849)"/>
    <path id="Path_122" data-name="Path 122" class="cls-1" d="M121.687,170.364H120.21l-2.31-3.6.816-1.026Zm-1.314-.295h.775l-2.455-3.822-.43.539Z" transform="translate(-78.486 -104.348)"/>
    <path id="Path_123" data-name="Path 123" class="cls-1" d="M136.685,161.865h-.147v-1.42h.147a.966.966,0,0,0,.978-.978V153.69h1.42v5.776a2.32,2.32,0,0,1-.192.931,2.478,2.478,0,0,1-.516.76,2.442,2.442,0,0,1-.76.516A2.33,2.33,0,0,1,136.685,161.865Zm.147-1.135v.834a1.972,1.972,0,0,0,.666-.162,2.166,2.166,0,0,0,.669-.454,2.2,2.2,0,0,0,.454-.669,2,2,0,0,0,.168-.813v-5.481h-.831v5.481a1.243,1.243,0,0,1-.368.9A1.229,1.229,0,0,1,136.832,160.73Zm-1.126,1.135h-.147a2.32,2.32,0,0,1-.931-.192,2.44,2.44,0,0,1-1.276-1.276,2.32,2.32,0,0,1-.192-.931V153.69h1.42v5.776a.966.966,0,0,0,.978.978h.147Zm-2.251-7.88v5.481a2,2,0,0,0,.168.813,2.166,2.166,0,0,0,.454.669,2.2,2.2,0,0,0,.669.454,1.972,1.972,0,0,0,.666.162v-.834a1.217,1.217,0,0,1-.757-.362,1.232,1.232,0,0,1-.368-.9v-5.481Z" transform="translate(-89.249 -95.849)"/>
    <path id="Path_124" data-name="Path 124" class="cls-1" d="M159.579,161.865h-2.4v-1.42h2.4a.978.978,0,1,0,0-1.957h-2.4v-1.42h2.4a.978.978,0,1,0,0-1.957h-2.4v-1.42h2.4a2.321,2.321,0,0,1,.931.192,2.44,2.44,0,0,1,1.276,1.276,2.378,2.378,0,0,1-.029,1.936,2.544,2.544,0,0,1-.477.684,2.543,2.543,0,0,1,.477.684,2.363,2.363,0,0,1,.032,1.936,2.44,2.44,0,0,1-1.276,1.276A2.344,2.344,0,0,1,159.579,161.865Zm-2.1-.295h2.1a2,2,0,0,0,.813-.168,2.166,2.166,0,0,0,.669-.454,2.2,2.2,0,0,0,.454-.669,2.06,2.06,0,0,0-.027-1.689,2.3,2.3,0,0,0-.522-.7l-.121-.109.121-.109a2.328,2.328,0,0,0,.525-.7,2.06,2.06,0,0,0,.027-1.689,2.166,2.166,0,0,0-.454-.669,2.2,2.2,0,0,0-.669-.454,2,2,0,0,0-.813-.168h-2.1v.831h2.1a1.273,1.273,0,1,1,0,2.546h-2.1v.831h2.1a1.272,1.272,0,1,1,0,2.543h-2.1v.831Z" transform="translate(-106.191 -95.849)"/>
    <g id="Group_184" data-name="Group 184" transform="translate(56.942 57.841)">
      <path id="Path_125" data-name="Path 125" class="cls-1" d="M182.178,155.11h-4.8v-1.42h4.8Zm-4.5-.295h4.208v-.831h-4.208Z" transform="translate(-177.38 -153.69)"/>
      <path id="Path_126" data-name="Path 126" class="cls-1" d="M180.678,166.57h-3.3v-1.42h3.3Zm-3-.295h2.708v-.831h-2.708Z" transform="translate(-177.38 -161.773)"/>
      <path id="Path_127" data-name="Path 127" class="cls-1" d="M182.178,178.03h-4.8v-1.42h4.8Zm-4.5-.295h4.208V176.9h-4.208Z" transform="translate(-177.38 -169.856)"/>
    </g>
  </g>
</svg>
