<svg xmlns="http://www.w3.org/2000/svg" width="21.15" height="21.15" viewBox="0 0 21.15 21.15">
  <defs>
    <style>
      .cls-1 {
        fill: #1a8ef1;
      }
    </style>
  </defs>
  <g id="plan" transform="translate(0)">
    <path id="Path_995" data-name="Path 995" class="cls-1" d="M1.866,0H19.284A1.866,1.866,0,0,1,21.15,1.866V19.284a1.866,1.866,0,0,1-1.866,1.866H1.866A1.866,1.866,0,0,1,0,19.284V1.866A1.866,1.866,0,0,1,1.866,0ZM13.686,6.843H11.2a.622.622,0,0,1,0-1.244h8.709V1.866a.622.622,0,0,0-.622-.622H7.465V6.221a.622.622,0,1,1-1.244,0V1.244H1.866a.622.622,0,0,0-.622.622v8.709H6.221V9.953a.622.622,0,1,1,1.244,0v2.488a.622.622,0,1,1-1.244,0v-.622H1.244v7.465a.622.622,0,0,0,.622.622H6.221V16.174a.622.622,0,0,1,1.244,0v3.732h6.221V16.8H11.2a.622.622,0,1,1,0-1.244h2.488V13.686a.622.622,0,0,1,1.244,0v6.221h4.355a.622.622,0,0,0,.622-.622V6.843H14.93v3.11a.622.622,0,1,1-1.244,0Z" transform="translate(0 0)"/>
  </g>
</svg>
