<svg xmlns="http://www.w3.org/2000/svg" width="20.875" height="20.058" viewBox="0 0 20.875 20.058">
  <path id="playlist_1_" data-name="playlist (1)" d="M20.549,14.218,12.13,9.547a.676.676,0,0,0-.652,0,.623.623,0,0,0-.326.543v9.341a.623.623,0,0,0,.326.543.675.675,0,0,0,.652,0l8.419-4.67a.615.615,0,0,0,0-1.086Zm-8.093,4.128V11.176l6.462,3.585ZM0,.627A.64.64,0,0,1,.652,0h19.57a.64.64,0,0,1,.652.627.64.64,0,0,1-.652.627H.652A.64.64,0,0,1,0,.627ZM20.875,6.895a.64.64,0,0,1-.652.627H.652a.627.627,0,1,1,0-1.254h19.57A.64.64,0,0,1,20.875,6.895ZM8.664,19.431a.64.64,0,0,1-.652.627H.652a.627.627,0,1,1,0-1.254h7.36A.64.64,0,0,1,8.664,19.431Zm0-6.268a.64.64,0,0,1-.652.627H.652a.627.627,0,1,1,0-1.254h7.36A.64.64,0,0,1,8.664,13.163Z" fill="#1a8ef1"/>
</svg>
