<svg xmlns="http://www.w3.org/2000/svg" width="7.631" height="8.898" viewBox="0 0 7.631 8.898">
  <g id="arrow" transform="translate(39.473 0) rotate(90)">
    <g id="Group_140" data-name="Group 140" transform="translate(0 31.842)">
      <path id="Path_96" data-name="Path 96" d="M8.363,35.033a.636.636,0,0,0-.11-.008H1.975l.137-.064a1.273,1.273,0,0,0,.36-.255l1.76-1.76a.659.659,0,0,0,.092-.844.637.637,0,0,0-.955-.083L.186,35.2a.637.637,0,0,0,0,.9h0L3.37,39.287a.637.637,0,0,0,.955-.064.659.659,0,0,0-.092-.844L2.475,36.616a1.274,1.274,0,0,0-.318-.232L1.966,36.3H8.218a.659.659,0,0,0,.672-.535A.637.637,0,0,0,8.363,35.033Z" transform="translate(0 -31.842)" fill="#9b9b9b"/>
    </g>
  </g>
</svg>
