<svg xmlns="http://www.w3.org/2000/svg" width="161.334" height="144.77" viewBox="0 0 161.334 144.77">
  <defs>
    <style>
      .cls-1 {
        fill: #37bdf2;
      }

      .cls-2 {
        fill: #fff;
      }
    </style>
  </defs>
  <g id="Robot" transform="translate(-2.64 -9.299)">
    <g id="Group_1851" data-name="Group 1851" transform="translate(2.64 9.299)">
      <g id="Group_1835" data-name="Group 1835">
        <g id="Group_1833" data-name="Group 1833" transform="translate(49.587 7.936)">
          <g id="Group_1825" data-name="Group 1825" transform="translate(77.323)">
            <g id="Group_1824" data-name="Group 1824">
              <path id="Path_850" data-name="Path 850" class="cls-1" d="M105.211,28.541c-1.961,3.392,1.989,6.851,4.456,9.9a21.457,21.457,0,0,0,14.279,7.741,5.612,5.612,0,0,0,3.3-.415,6.059,6.059,0,0,0,1.979-2.118A50.709,50.709,0,0,0,135.835,28.8c.642-2.436,1.091-5.067.226-7.433a8.714,8.714,0,0,0-4.652-4.744,10.636,10.636,0,0,0-10.372.9c-2.562,1.822-3.055,6.779-5,7.678-.74.343-3.352-.664-4.523-.377-1.605.393-5.464,2.261-6.307,3.719Z" transform="translate(-104.682 -15.679)"/>
            </g>
          </g>
          <g id="Group_1827" data-name="Group 1827" transform="translate(60.667 34.203)">
            <g id="Group_1826" data-name="Group 1826" transform="translate(0 0)">
              <path id="Path_851" data-name="Path 851" class="cls-1" d="M95.531,51.9A4.834,4.834,0,0,0,92.1,53.484a4.137,4.137,0,0,0-.745,1.932,8.462,8.462,0,0,0,3.03,7.205,22.055,22.055,0,0,0,7.108,3.867,21.883,21.883,0,0,0,7.708,1.818,2.383,2.383,0,0,0,1.35-.3,2.54,2.54,0,0,0,.7-.861,35.266,35.266,0,0,0,4.825-17.251c.026-1.8-.156-3.777-1.406-5.078a5.4,5.4,0,0,0-2.642-1.4,8.847,8.847,0,0,0-8.2,2.255c-1.672,1.667-1.327,5.041-2.543,6.263-1.561,1.569-3.3-.293-5.753-.041Z" transform="translate(-91.29 -43.18)"/>
            </g>
          </g>
          <g id="Group_1832" data-name="Group 1832" transform="translate(0 9.668)">
            <g id="Group_1829" data-name="Group 1829" transform="translate(8.3 37.863)">
              <g id="Group_1828" data-name="Group 1828">
                <path id="Path_852" data-name="Path 852" class="cls-1" d="M49.184,61.278a11.538,11.538,0,0,1,21.8.78" transform="translate(-49.184 -53.897)"/>
              </g>
            </g>
            <g id="Group_1831" data-name="Group 1831">
              <g id="Group_1830" data-name="Group 1830">
                <path id="Path_853" data-name="Path 853" class="cls-1" d="M44.909,26.391c-2.26.665-2.8,3.89-1.591,5.909a5.841,5.841,0,0,0,10.7-4.3,5.841,5.841,0,0,0-11.51.732" transform="translate(-42.51 -23.453)"/>
              </g>
            </g>
          </g>
        </g>
        <g id="Group_1834" data-name="Group 1834">
          <path id="Path_854" data-name="Path 854" d="M134.721,94.806a15.317,15.317,0,0,0-12.337-2.766c-1.882-15.131-8.63-20.372-20.239-21.844-4.033-.492-5.99-.366-15.043-1.014-1.8-.12-3.527-.207-5.223-.279-.025-2.161-2.472-6.105-7.1-7.917a11.759,11.759,0,0,0-5-.706c.668-2.348.7-7.545-.906-12.965A29.7,29.7,0,0,0,61.72,34.932a7.138,7.138,0,0,0,1.686-8.872c-3.1-5.284-10.514-4.764-12.544.618-.213.656-.471,1.951.1,2.254-1.606,4.847,4.08,8.967,8.753,7.193,1.993,3.016,4.541,6.317,6.648,12.034,2.242,5.987,2.45,10.512,2.848,12.163a11.946,11.946,0,0,0-9.254,6.567c-.529,1.2-.587,2.014-.418,2.075.2.077.615-.578,1.371-1.485,4.609-5.451,11.9-6.277,17.217-.834a18.716,18.716,0,0,1,1.751,2.18C70.068,68.5,49,68.834,40.127,72.069,35.95,73.546,31.781,76.224,29.57,80.1a5.178,5.178,0,0,0-.719,1.909c-7.583,10.5-7.039,27.1-6.08,40.035.028.294.068.592.1.889-1.06-.5-3.739-.924-6.743-3.575-3.255-2.9-5.326-7.534-6.206-11.8a4.317,4.317,0,0,0,4.04-2.373,4.5,4.5,0,0,0,.519-2.894,4.685,4.685,0,0,0-1.5-2.732,3.827,3.827,0,0,0-2.176-1.011,1.132,1.132,0,0,0-.944.227,14.256,14.256,0,0,1,4.147-7.491,13.6,13.6,0,0,1,7.882-3.65c2.3-.245,3.736.28,3.81.033.069-.116-1.281-1.049-3.834-1.154-4.627-.311-10.248,2.635-13.056,7.93-5.6,10.348.505,27.885,11.6,29.76a5.2,5.2,0,0,0,2.608-.109c.943,6.527,3.389,11.638,10.057,16.189a39.214,39.214,0,0,0,6.748,3.624,79.668,79.668,0,0,0,15.008,4.426c15.881,3.226,30.138,4,47.764-1.216,4.065-1.145,7.879-2.581,10.763-5.669,4-4.332,6.061-10.757,7.323-16.523,2.292,1.344,5.639.819,8.18.026,14.57-4.738,15.964-22.782,5.855-30.138ZM54.366,33.514a4.169,4.169,0,0,1-2.126-4.773c.407-1.648,1.809-2.011,1.294-2.139,4.377-4.26,10.542,1.529,6.774,6.022C59.623,33.448,56.292,34.6,54.366,33.514ZM108.7,141.775a26.776,26.776,0,0,1-6.821,2.783c-17.413,5.278-31.269,4.53-46.6,1.589-8.87-1.711-20.758-5-26.329-12.073-3.019-3.457-4.084-7.95-4.57-12.2-.9-9.874-1.582-22.393,1.335-31.734a32.173,32.173,0,0,1,3.642-8.032c.978-.91,3.513-5.621,11.427-8.106,3.34-1.085,7.714-1.665,13.261-2.04a224.741,224.741,0,0,1,32.874-.035c9.687.755,16.9.5,22.524,3.013,8.591,3.9,10.11,13.832,10.582,23.253.608,11.93-1.1,37.4-11.321,43.585Zm23.573-21.683c-2.924,2.16-7.788,4.1-11.231,3.111a102.038,102.038,0,0,0,1.435-30.5c7.578-.16,13.524,4.122,15.448,10.608l-.949-.684-.32.423c-2.1.537-4.03,3.647-3.042,6.62.47,1.4,1.674,2.986,3,3.233a.827.827,0,0,0,1.031-.584c.341-.679.2-1.009-.261-1.651l.775.527s0,.01,0,.015a15.5,15.5,0,0,1-5.885,8.882Z" transform="translate(-1.65 -6.116)"/>
          <path id="Path_855" data-name="Path 855" d="M79.4,108.106c1.16-1.942,1.217-11.538.321-12.93a83.187,83.187,0,0,0,10.317-1.242c2.62-.562,2.678-.931,2.63-1.326s-.2-.74-2.852-.7c-2.654-.018-7.8.5-17.909.729-20.323.486-32.714-1.431-34.769-1.034-.256-1.2-.658-1.246-1.108-1.249-.795-.005-1.44.124-1.482,6.5a57.319,57.319,0,0,0,.848,9.9c-.418.033-.3.15.081.321.29,1.031.544.942.787.3a84.777,84.777,0,0,0,12.689,2.738c16.952,2.5,33.387,1.188,42.146-1.055,2.736-.74,2.776-1.112,2.7-1.5-.217-1.181-3.341-.326-14.4.55Zm-42.956-1.318c.754-2.992,1.342-11.466.744-14.916,1.169.521,6.474,1.66,12.939,2.458,3.526.456,7.391.777,11.08.974-.751,1.163-1.653,5.441-1.872,7.634-.47,4.69.161,4.852.952,4.932s1.442.046,1.912-4.644c.222-2.21.186-6.638-.331-7.887a144.016,144.016,0,0,0,17.367-.131c-1.1,1.5-2.754,11.468-1.594,13.028-21.482,1.494-36.265-1.068-41.2-1.448Z" transform="translate(5.136 10.455)"/>
          <path id="Path_856" data-name="Path 856" d="M80.765,92.94c-.795-.013-1.533,5.639-1.576,8.278-.08,4.816.563,4.927,1.358,4.94s1.441-.077,1.521-4.893c.043-2.639-.507-8.312-1.3-8.325Z" transform="translate(16.014 11.085)"/>
          <path id="Path_857" data-name="Path 857" d="M43.545,93.514c-.795,0-1.457,5.351-1.464,7.847-.015,4.555.629,4.652,1.425,4.655s1.44-.09,1.454-4.645c.008-2.5-.619-7.854-1.414-7.856Z" transform="translate(6.972 11.225)"/>
          <path id="Path_858" data-name="Path 858" d="M107.326,68.72c.163-.015.3-.032.433-.05a.8.8,0,0,0,.108.2c.225.311.517.605,2.415-.539a19.259,19.259,0,0,0,3.985-3.373c7.446-8.263,4.65-18.77-2.6-20.957-6.451-2.021-11.451,3.412-9.965,8.195-2.584-3.47-7.9-2.844-10.273,1.47a7.889,7.889,0,0,0-.913,4.689c.8,7.455,9.06,10.93,16.808,10.366ZM95.731,52.3a4.422,4.422,0,0,1,5.179.692c1.142,1.038,1.272,2.144,1.5,2.113.085,0,.194-.283.153-.8a3.415,3.415,0,0,0-.2-.913c.052.041.094.063.112.047.221-.086-.291-1.247.109-3.012A5.87,5.87,0,0,1,107,45.913c5.936-1.288,11.557,5.69,7.329,14.142-1.478,2.915-3.417,4.688-5.6,6.984-2.183-.923-7.988-.535-12.429-3.955-4.155-3.2-4.21-8.7-.565-10.783Z" transform="translate(18.764 -0.947)"/>
          <path id="Path_859" data-name="Path 859" d="M130.584,14.741a11.463,11.463,0,0,0-6.728-.121A9.117,9.117,0,0,0,117.35,24.5c-2.044-1.95-6.238-2.621-9.4-.966a9.652,9.652,0,0,0-4.1,4.273c-2.52,4.978-.154,11.377,4.375,14.8,4.136,3.146,8.177,3.717,10.72,4.238a30.906,30.906,0,0,0,6.662.7c.01.016.018.032.029.047.222.307.547.6,3.014-.988,15.3-10.449,13.157-28.4,1.937-31.87Zm4.1,21.3c-2.314,4.524-5.428,6.974-8.226,9.882-5.386-1.741-14.639-1.865-19.17-8.4-3.206-4.678-2.045-9.9,1.657-12.207a7.841,7.841,0,0,1,7.534-.109c1.741,1.1,1.787,2.708,2.039,2.637.077,0,.2-.369.1-1.042a3.657,3.657,0,0,0-.3-.952c-.893-6.155,4.756-11.385,11.493-8.844a10.922,10.922,0,0,1,6.58,8.082,16.223,16.223,0,0,1-1.7,10.957Z" transform="translate(21.775 -8.111)"/>
          <path id="Path_860" data-name="Path 860" d="M31.309,27.382c2.364.6,7.6,1.262,7.791.491s-4.719-2.682-7.083-3.282c-4.314-1.094-4.562-.493-4.758.278S27,26.289,31.309,27.382Z" transform="translate(3.343 -5.717)"/>
          <path id="Path_861" data-name="Path 861" d="M36.937,21.348c1.317,1.108,2.551,1.794,2.824,1.512s-.427-1.468-1.294-2.855c-4.507-7.105-5.033-7.782-6.188-7.164a.9.9,0,0,0-.594,1.037,9.571,9.571,0,0,0,1.834,3.766,20.261,20.261,0,0,0,3.418,3.7Z" transform="translate(4.437 -8.479)"/>
          <path id="Path_862" data-name="Path 862" d="M45.9,20.8c.765-.217,0-5.286-.651-7.567-1.181-4.162-1.826-4.073-2.591-3.856s-1.36.48-.179,4.641C43.126,16.3,45.135,21.02,45.9,20.8Z" transform="translate(6.906 -9.299)"/>
          <path id="Path_863" data-name="Path 863" d="M10.482,75.5c.109-.749.467-2.217.194-2.322h0c-.127-4.8,1.124-9.264,4.434-12.749a22.459,22.459,0,0,1,6.445-4.6c1.065-.587,1.065-.921.972-1.318-.087-.375-.207-.758-1.581-.624-4.844.587-10.864,5.814-11.832,12.732a14.036,14.036,0,0,0,.779,7.645Z" transform="translate(-1.112 1.559)"/>
          <path id="Path_864" data-name="Path 864" d="M10.1,52.874c-.223-.329-.437-.619-1.242-.36-2.5.893-5.783,4.943-6.185,9.932-.186,2.251.364,3.992.741,3.949.411-.033.611-1.7,1.256-3.554,1.574-4.854,4.932-7.847,5.41-8.7a.954.954,0,0,0,.021-1.269Z" transform="translate(-2.64 1.209)"/>
          <path id="Path_865" data-name="Path 865" d="M40.2,90.953c4.24,1.346,9.125-1.132,11.21-4.982,2.3-4.219,1.92-9.469.207-13.944-1.068-2.744-3.1-5.015-6.057-4.831a3.5,3.5,0,0,0-2.537,1.171c-2.025-.552-5.186.7-7,4.847-4.174,9.781-.666,16.255,4.173,17.74Zm.813-6.732c-.043.089-.1.156-.077.145-.036.066-.145.17-.233.119-.337-.187-.44-.869-.459-1.252,0-.08.017-.133.022-.206a.88.88,0,0,1,.285-.035C41.259,83.007,41.306,83.68,41.018,84.221ZM42.773,68.78l-.005.01c-.179.485-.008.606.152.713.6.409.932-.43,2.642-.272,1.938.263,2.938,1.858,3.575,3.726,1.8,5.408,1.621,11.95-3.339,14.711a7.064,7.064,0,0,1-3.209.929c5.886-2.8,2.13-10.888-3.1-9.918A5.42,5.42,0,0,0,36.3,80.463c0-.413.017-.825.056-1.234.54-4.568,1.863-9.855,6.417-10.45Z" transform="translate(5.046 4.808)"/>
          <path id="Path_866" data-name="Path 866" d="M75.655,88.644c4.472-2.372,6.181-7.131,5.825-12.221-.269-3.25-1.432-7.827-4.09-9.747-2.1-1.54-4.8-1.137-5.857.189-2.025-.552-5.186.7-7,4.847-1.682,3.942-2.689,8.67-1.065,12.616.888,2.234,7.455,6.861,12.182,4.316Zm-5.829-6.676a13.973,13.973,0,0,0-.783-1.681A1.029,1.029,0,0,1,69.826,81.968ZM67.713,80.8a20.139,20.139,0,0,0,.442,2.6A1.875,1.875,0,0,1,67.713,80.8ZM71.28,67.279l-.005.01c-.179.485-.008.606.152.713.6.409.932-.43,2.642-.272a3.331,3.331,0,0,1,1.842.819c1.808,1.6,2.608,5.655,2.757,8.065A11.918,11.918,0,0,1,77.4,83.083c-1.52,2.822-5.223,4.831-8.315,3.7,3.539.266,6.269-2.463,5.928-5.478-.594-5.146-7.046-7.353-10.193-2.6.009-.326.014-.652.044-.974.539-4.557,1.854-9.854,6.417-10.45Z" transform="translate(11.985 4.443)"/>
        </g>
      </g>
      <g id="Group_1838" data-name="Group 1838" transform="translate(144.502 13.345)">
        <g id="Group_1837" data-name="Group 1837">
          <g id="Group_1836" data-name="Group 1836">
            <path id="Path_867" data-name="Path 867" class="cls-2" d="M125.164,27c-.2-.019-.376-.071-.485-.517a8.738,8.738,0,0,0-1.029-2.776,7.31,7.31,0,0,0-2.6-2.5c-1.105-.627-2.207-.7-2.221-.912-.035-.177,1.169-.5,2.616-.027a6.57,6.57,0,0,1,2.042,1.12,6.766,6.766,0,0,1,1.384,1.55,5.718,5.718,0,0,1,.855,2.275A3.234,3.234,0,0,1,125.7,26.5c-.155.537-.336.525-.533.506Z" transform="translate(-118.827 -20.029)"/>
          </g>
        </g>
      </g>
      <g id="Group_1841" data-name="Group 1841" transform="translate(150.519 26.129)">
        <g id="Group_1840" data-name="Group 1840">
          <g id="Group_1839" data-name="Group 1839">
            <path id="Path_868" data-name="Path 868" class="cls-2" d="M124.2,35.3c-.393-.058-.706-.143-.438-1.96.147-1,.782-3.086,1.175-3.028s.4,2.242.249,3.238c-.269,1.818-.593,1.808-.986,1.75Z" transform="translate(-123.664 -30.308)"/>
          </g>
        </g>
      </g>
      <g id="Group_1844" data-name="Group 1844" transform="translate(124.545 50.187)">
        <g id="Group_1843" data-name="Group 1843" transform="translate(0 0)">
          <g id="Group_1842" data-name="Group 1842">
            <path id="Path_869" data-name="Path 869" class="cls-2" d="M106.934,54.609a.525.525,0,0,1-.4-.464,4.834,4.834,0,0,0-.51-1.805,4.237,4.237,0,0,0-1.673-1.657c-.737-.4-1.5-.329-1.568-.526-.087-.162.737-.684,1.883-.442a4.112,4.112,0,0,1,2.609,1.914,2.857,2.857,0,0,1,.249,2.749c-.239.366-.409.3-.595.232Z" transform="translate(-102.781 -49.652)"/>
          </g>
        </g>
      </g>
      <g id="Group_1847" data-name="Group 1847" transform="translate(127.251 60.987)">
        <g id="Group_1846" data-name="Group 1846">
          <g id="Group_1845" data-name="Group 1845">
            <path id="Path_870" data-name="Path 870" class="cls-2" d="M105.676,61.652c-.4,0-.72-.025-.72-1.233,0-.662.322-2.083.72-2.083s.72,1.421.72,2.083C106.4,61.627,106.074,61.652,105.676,61.652Z" transform="translate(-104.956 -58.335)"/>
          </g>
        </g>
      </g>
      <g id="Group_1850" data-name="Group 1850" transform="translate(54.842 23.51)">
        <g id="Group_1849" data-name="Group 1849">
          <g id="Group_1848" data-name="Group 1848">
            <path id="Path_871" data-name="Path 871" class="cls-2" d="M47.73,29.2c-.281.281-.515.5-.817.2a.72.72,0,1,1,1.018-1.018C48.233,28.682,48.011,28.915,47.73,29.2Z" transform="translate(-46.735 -28.202)"/>
          </g>
        </g>
      </g>
    </g>
  </g>
</svg>
