<svg xmlns="http://www.w3.org/2000/svg" width="24.02" height="19.127" viewBox="0 0 24.02 19.127">
  <defs>
    <style>
      .cls-1 {
        fill: #37bdf2;
      }
    </style>
  </defs>
  <g id="XMLID_748_" transform="translate(0 -52.066)">
    <path id="XMLID_752_" class="cls-1" d="M142.39,183.395a3.394,3.394,0,1,0,3.394,3.394A3.4,3.4,0,0,0,142.39,183.395Zm0,5.378a1.984,1.984,0,1,1,1.984-1.984A1.986,1.986,0,0,1,142.39,188.773Z" transform="translate(-132.466 -125.159)"/>
    <path id="XMLID_786_" class="cls-1" d="M196.23,360.613h1.409V362.2H196.23Z" transform="translate(-187.011 -294.052)"/>
    <path id="XMLID_787_" class="cls-1" d="M0,0H1.409V1.589H0Z" transform="translate(13.35 65.26) rotate(-51.412)"/>
    <path id="XMLID_788_" class="cls-1" d="M0,0H1.589V1.409H0Z" transform="translate(14.581 59.838) rotate(-12.883)"/>
    <path id="XMLID_789_" class="cls-1" d="M0,0H1.589V1.409H0Z" transform="translate(11.43 56.88) rotate(-64.28)"/>
    <path id="XMLID_795_" class="cls-1" d="M23.337,59.613a5.3,5.3,0,0,1-.41-.853,5.637,5.637,0,0,1-.182-.975,4.168,4.168,0,0,0-.621-1.989,4.178,4.178,0,0,0-1.709-1.209,5.521,5.521,0,0,1-.862-.468,5.427,5.427,0,0,1-.7-.667,4.173,4.173,0,0,0-1.691-1.263,4.143,4.143,0,0,0-2.061.027,5.732,5.732,0,0,1-1.006.13,4.86,4.86,0,0,1-.921-.115l-.135-.025-.048-.017a4.143,4.143,0,0,0-2.061.027,5.732,5.732,0,0,1-1.006.13,5.732,5.732,0,0,1-1.006-.13,4.144,4.144,0,0,0-2.061-.027,4.173,4.173,0,0,0-1.691,1.263,5.427,5.427,0,0,1-.7.667,5.517,5.517,0,0,1-.862.468A4.178,4.178,0,0,0,1.9,55.8a4.168,4.168,0,0,0-.621,1.989,5.633,5.633,0,0,1-.182.975,5.3,5.3,0,0,1-.41.853,3.322,3.322,0,0,0,0,4.033,5.3,5.3,0,0,1,.41.853,5.632,5.632,0,0,1,.182.975A4.168,4.168,0,0,0,1.9,67.463,4.178,4.178,0,0,0,3.6,68.672a5.521,5.521,0,0,1,.862.468,5.427,5.427,0,0,1,.7.667,4.173,4.173,0,0,0,1.691,1.263,4.145,4.145,0,0,0,2.061-.027,5.732,5.732,0,0,1,1.006-.13,5.733,5.733,0,0,1,1.006.13,6.7,6.7,0,0,0,1.227.15,2.681,2.681,0,0,0,.834-.123c.053-.017.105-.037.156-.057a5.945,5.945,0,0,1,.948-.1,5.732,5.732,0,0,1,1.006.13,6.7,6.7,0,0,0,1.227.15,2.681,2.681,0,0,0,.834-.123,4.173,4.173,0,0,0,1.691-1.263,5.43,5.43,0,0,1,.7-.667,5.517,5.517,0,0,1,.862-.468,4.178,4.178,0,0,0,1.709-1.209,4.168,4.168,0,0,0,.621-1.989,5.632,5.632,0,0,1,.182-.975,5.3,5.3,0,0,1,.41-.853,3.322,3.322,0,0,0,0-4.033ZM11.188,69.657A6.851,6.851,0,0,0,9.923,69.5a6.851,6.851,0,0,0-1.265.154,3.066,3.066,0,0,1-1.367.072,3.071,3.071,0,0,1-1.1-.887A6.527,6.527,0,0,0,5.3,68a6.62,6.62,0,0,0-1.089-.6,3.082,3.082,0,0,1-1.173-.764,3.079,3.079,0,0,1-.363-1.342,6.745,6.745,0,0,0-.239-1.228,6.393,6.393,0,0,0-.516-1.1,3.076,3.076,0,0,1-.507-1.337,3.075,3.075,0,0,1,.507-1.337,6.394,6.394,0,0,0,.516-1.1,6.749,6.749,0,0,0,.239-1.228,3.079,3.079,0,0,1,.363-1.342,3.083,3.083,0,0,1,1.173-.764,6.621,6.621,0,0,0,1.089-.6,6.527,6.527,0,0,0,.9-.842,3.071,3.071,0,0,1,1.1-.887,3.066,3.066,0,0,1,1.367.072,6.851,6.851,0,0,0,1.265.154,6.85,6.85,0,0,0,1.265-.154,3.065,3.065,0,0,1,1.367-.072,3.07,3.07,0,0,1,1.1.887,6.53,6.53,0,0,0,.9.842,6.621,6.621,0,0,0,1.089.6,3.082,3.082,0,0,1,1.173.764,3.079,3.079,0,0,1,.363,1.342,6.745,6.745,0,0,0,.239,1.228,6.393,6.393,0,0,0,.516,1.1,3.075,3.075,0,0,1,.507,1.337,3.075,3.075,0,0,1-.507,1.337,6.393,6.393,0,0,0-.516,1.1,6.75,6.75,0,0,0-.239,1.228,3.08,3.08,0,0,1-.363,1.342,3.084,3.084,0,0,1-1.173.764,6.62,6.62,0,0,0-1.089.6,6.527,6.527,0,0,0-.9.842,3.07,3.07,0,0,1-1.1.887,3.065,3.065,0,0,1-1.367-.072ZM22.1,62.966a6.394,6.394,0,0,0-.516,1.1,6.749,6.749,0,0,0-.239,1.228,3.08,3.08,0,0,1-.363,1.342,3.083,3.083,0,0,1-1.173.764,6.622,6.622,0,0,0-1.089.6,6.527,6.527,0,0,0-.9.842,3.071,3.071,0,0,1-1.1.887,3.066,3.066,0,0,1-1.367-.072c-.151-.028-.3-.057-.459-.081a3.845,3.845,0,0,1,.48-.436,5.517,5.517,0,0,1,.862-.468,4.178,4.178,0,0,0,1.709-1.209,4.168,4.168,0,0,0,.621-1.989,5.637,5.637,0,0,1,.182-.975,5.3,5.3,0,0,1,.41-.853,3.322,3.322,0,0,0,0-4.033,5.3,5.3,0,0,1-.41-.853,5.637,5.637,0,0,1-.182-.975,4.168,4.168,0,0,0-.621-1.989,4.178,4.178,0,0,0-1.709-1.209,5.521,5.521,0,0,1-.862-.468,3.846,3.846,0,0,1-.48-.436c.155-.025.308-.053.459-.081a3.065,3.065,0,0,1,1.367-.072,3.071,3.071,0,0,1,1.1.887,6.533,6.533,0,0,0,.9.842,6.62,6.62,0,0,0,1.089.6,3.082,3.082,0,0,1,1.173.764,3.079,3.079,0,0,1,.363,1.342,6.746,6.746,0,0,0,.239,1.228,6.393,6.393,0,0,0,.516,1.1,3.075,3.075,0,0,1,.507,1.337,3.074,3.074,0,0,1-.507,1.336Z"/>
    <path id="XMLID_1380_" class="cls-1" d="M0,0H1.409V1.589H0Z" transform="translate(6.46 56.059) rotate(-25.72)"/>
    <path id="XMLID_1381_" class="cls-1" d="M0,0H1.409V1.589H0Z" transform="translate(3.411 60.87) rotate(-77.117)"/>
    <path id="XMLID_1382_" class="cls-1" d="M0,0H1.589V1.409H0Z" transform="translate(4.394 65.144) rotate(-38.588)"/>
  </g>
</svg>
