<svg xmlns="http://www.w3.org/2000/svg" width="23.368" height="21.715" viewBox="0 0 23.368 21.715">
  <defs>
    <style>
      .default {
        fill: #9b9b9b;
      }
    </style>
  </defs>
  <path id="download_4_" data-name="download (4)" class="default" d="M234.875,242.965l-4.086-2.432.1-7.4v-.169a.256.256,0,0,0-.067-.135c-.034-.034-.067-.067-.067-.1a.033.033,0,0,1-.034-.034c-.034-.034-.067-.034-.1-.067h-.034l-6.349-3.783v-4.728a.6.6,0,0,0-.574-.608.623.623,0,0,0-.608.574v4.728l-6.45,3.613h-.034c-.034.034-.067.034-.1.067a.033.033,0,0,0-.034.034l-.1.1c-.034.034-.034.1-.067.135v.169l-.1,7.43-4.086,2.3a.637.637,0,0,0-.236.811.557.557,0,0,0,.507.3.987.987,0,0,0,.3-.067l4.12-2.3,6.315,3.749h.034a.124.124,0,0,0,.1.034h.034c.034,0,.1.034.135.034a.2.2,0,0,0,.135-.034h.034c.034,0,.067-.034.1-.034h.034l6.45-3.613,4.086,2.432a.5.5,0,0,0,.3.067.558.558,0,0,0,.507-.3.531.531,0,0,0-.169-.777Zm-17.493-2.6.067-6.383,5.471,3.242-.067,6.383Zm6.247-10.5L229.1,233.1l-5.539,3.107-5.471-3.242Zm.507,7.43,5.539-3.107-.067,6.383-5.539,3.107Z" transform="translate(-211.784 -223.513)"/>
</svg>
