<svg xmlns="http://www.w3.org/2000/svg" width="70.811" height="52" viewBox="0 0 70.811 52">
  <g id="roommanagement" transform="translate(-151.047 -210.554)">
    <path id="Path_1015" data-name="Path 1015" d="M220.37,256.448h-3.649V215.272a1.414,1.414,0,0,0-1.414-1.414h-37.23v-1.936a1.206,1.206,0,0,0-.521-1.042,1.247,1.247,0,0,0-1.117-.3l-19.286,3.351a1.355,1.355,0,0,0-1.117,1.34v41.177h-3.574a1.414,1.414,0,0,0,0,2.829h4.915l19.136,3.276h.224a1.822,1.822,0,0,0,.894-.3,1.564,1.564,0,0,0,.521-1.042v-1.936h42.293a1.414,1.414,0,0,0,1.414-1.414,1.478,1.478,0,0,0-1.489-1.415Zm-45.049,3.127-16.529-2.9V216.463l16.531-2.829Zm8.191-3.127H178.15V216.687h5.361Zm30.529,0H186.268V216.687H214.04Z" fill="#1a8ef1"/>
    <path id="Path_1016" data-name="Path 1016" d="M271.384,367.568a1.936,1.936,0,1,0-1.936-1.936A1.971,1.971,0,0,0,271.384,367.568Z" transform="translate(-99.785 -129.064)" fill="#1a8ef1"/>
  </g>
</svg>
