<svg xmlns="http://www.w3.org/2000/svg" width="20.241" height="18.795" viewBox="0 0 20.241 18.795">
  <defs>
    <style>
      .default {
        fill: #9b9b9b;
      }
    </style>
  </defs>
  <g id="download_13_" data-name="download (13)" transform="translate(-168.809 -183.61)">
    <path id="Path_1485" data-name="Path 1485" class="default" d="M169.532,257.61a.723.723,0,0,0-.723.723v10.12a.723.723,0,0,0,.723.723h5.06v.723a1.427,1.427,0,0,1-1.446,1.446h-1.436a.723.723,0,1,0,0,1.446h10.1a.723.723,0,1,0,0-1.446h-1.436a1.427,1.427,0,0,1-1.446-1.446v-.723h5.06a.723.723,0,0,0,.723-.723v-2.159a.723.723,0,1,0-1.446,0v1.436H170.255v-8.674h7.219a.723.723,0,1,0,0-1.446Zm6.506,11.566h1.446v.723a2.852,2.852,0,0,0,.4,1.446h-2.253a2.852,2.852,0,0,0,.4-1.446Z" transform="translate(0 -70.385)"/>
    <path id="Path_1486" data-name="Path 1486" class="default" d="M381.063,183.61a.724.724,0,0,0-.716.733v.786a3.6,3.6,0,0,0-1.269.534l-.594-.594a.723.723,0,1,0-1.022,1.022l.6.6a3.594,3.594,0,0,0-.528,1.266h-.785a.723.723,0,1,0,0,1.446h.788a3.6,3.6,0,0,0,.529,1.258l-.6.6a.723.723,0,1,0,1.022,1.022l.6-.6a3.6,3.6,0,0,0,1.262.531V193a.723.723,0,1,0,1.446,0v-.785a3.6,3.6,0,0,0,1.262-.528l.6.6a.723.723,0,1,0,1.022-1.022l-.594-.594a3.6,3.6,0,0,0,.532-1.265h.788a.723.723,0,1,0,0-1.446h-.785a3.6,3.6,0,0,0-.528-1.266l.6-.6a.723.723,0,1,0-1.022-1.022l-.594.594a3.6,3.6,0,0,0-1.275-.535v-.785a.722.722,0,0,0-.73-.733Zm.01,2.891a2.168,2.168,0,1,1-2.168,2.168A2.158,2.158,0,0,1,381.073,186.5Z" transform="translate(-197.084)"/>
  </g>
</svg>
