<svg xmlns="http://www.w3.org/2000/svg" width="22.379" height="22.761" viewBox="0 0 22.379 22.761">
  <g id="theme" transform="translate(-185.156 -191.381)">
    <path id="Path_1493" data-name="Path 1493" d="M199.72,261.914c-.114,0-.223,0-.326-.006-3.01-.124-4.349-2.1-5.327-3.544-.426-.629-.829-1.223-1.162-1.294-.858-.17-1.443.354-2.3,1.241a3.345,3.345,0,0,1-2.469,1.418c-2.049-.28-3.035-1.752-2.976-4.382a9.626,9.626,0,0,1,.927-3.823c1.844-4,4.545-6.34,8.259-7.167,6.426-.84,10.479,1.547,12.447,7.282.006.017.011.035.015.053,1.183,5.07-.207,8.367-4.131,9.8a9.862,9.862,0,0,1-2.955.424ZM192.6,255.95a2.7,2.7,0,0,1,.527.053c.769.163,1.267.9,1.844,1.75.9,1.321,2.009,2.967,4.47,3.068a9.086,9.086,0,0,0,2.863-.353c3.363-1.227,4.492-4.008,3.451-8.5-1.8-5.222-5.368-7.3-11.22-6.539-3.312.74-5.767,2.886-7.459,6.553a8.543,8.543,0,0,0-.827,3.392c-.059,2.652,1.032,3.143,1.989,3.274.5,0,1-.494,1.586-1.094a4.031,4.031,0,0,1,2.775-1.6Zm-6.017-4.2h.005Z" transform="translate(0 -49.557)" fill="#9b9b9b"/>
    <path id="Path_1494" data-name="Path 1494" d="M269.907,293.346a1.526,1.526,0,1,1,1.518-1.526A1.524,1.524,0,0,1,269.907,293.346Zm0-1.964a.438.438,0,1,0,.43.438A.434.434,0,0,0,269.907,291.383Z" transform="translate(-78.102 -92.816)" fill="#9b9b9b"/>
    <path id="Path_1495" data-name="Path 1495" d="M415.927,303.184a2.326,2.326,0,1,1,2.311-2.326A2.321,2.321,0,0,1,415.927,303.184Zm0-3.564a1.238,1.238,0,1,0,1.222,1.237A1.231,1.231,0,0,0,415.927,299.62Z" transform="translate(-214.377 -100.546)" fill="#9b9b9b"/>
    <path id="Path_1496" data-name="Path 1496" d="M338.619,272.7a1.905,1.905,0,1,1,1.905-1.905A1.907,1.907,0,0,1,338.619,272.7Zm0-2.721a.817.817,0,1,0,.817.817A.817.817,0,0,0,338.619,269.977Z" transform="translate(-142.216 -72.73)" fill="#9b9b9b"/>
    <path id="Path_1497" data-name="Path 1497" d="M390.833,399.838a3.225,3.225,0,1,1,3.2-3.225A3.217,3.217,0,0,1,390.833,399.838Zm0-5.361a2.136,2.136,0,1,0,2.114,2.136A2.127,2.127,0,0,0,390.833,394.476Z" transform="translate(-189.994 -189.555)" fill="#9b9b9b"/>
    <path id="Path_1498" data-name="Path 1498" d="M474.82,253.644l.286-.456,1.289.977-.3.434Z" transform="translate(-271.809 -57.997)" fill="#9b9b9b"/>
    <path id="Path_1499" data-name="Path 1499" d="M471.95,250.746a.274.274,0,0,1-.164-.055l-1.272-.956a.272.272,0,0,1-.067-.362l.287-.456a.274.274,0,0,1,.182-.123.28.28,0,0,1,.213.051l1.289.978a.272.272,0,0,1,.059.373l-.3.434a.274.274,0,0,1-.18.113l-.042,0Z" transform="translate(-267.667 -53.872)" fill="#9b9b9b"/>
    <path id="Path_1500" data-name="Path 1500" d="M477.488,196.324a.271.271,0,0,1-.164-.055l-1.433-1.079a.272.272,0,0,1-.1-.148,2.732,2.732,0,0,1,.7-2.4c.887-.993,2.645-1.647,3.583-1a.273.273,0,0,1,.082.359,2.678,2.678,0,0,0-.231,1.4,2.548,2.548,0,0,1-.5,1.887,4.166,4.166,0,0,1-1.873,1.037.271.271,0,0,1-.064.008Zm-1.19-1.509,1.245.938a3.478,3.478,0,0,0,1.476-.836,2.072,2.072,0,0,0,.365-1.52,3.628,3.628,0,0,1,.179-1.412A2.969,2.969,0,0,0,476.9,193a2.248,2.248,0,0,0-.6,1.813Zm2.924.283h.005Z" transform="translate(-272.661)" fill="#9b9b9b"/>
    <path id="Path_1501" data-name="Path 1501" d="M240.708,462.4l-3.972,4.447a.731.731,0,0,1-1.041.059.741.741,0,0,1-.059-1.041l4.136-4.623Z" transform="translate(-47.194 -253.229)" fill="#9b9b9b"/>
    <path id="Path_1502" data-name="Path 1502" d="M232.057,463.221a.99.99,0,0,1-.671-.261,1.016,1.016,0,0,1-.081-1.421l4.138-4.625a.242.242,0,0,1,.21-.091.272.272,0,0,1,.2.1l.937,1.158a.272.272,0,0,1-.008.353l-3.972,4.446a1.007,1.007,0,0,1-.7.339Zm3.578-5.706-3.922,4.384a.469.469,0,0,0,.037.656.453.453,0,0,0,.332.121.464.464,0,0,0,.326-.158l3.818-4.274Z" transform="translate(-43.068 -249.08)" fill="#9b9b9b"/>
  </g>
</svg>
