<svg xmlns="http://www.w3.org/2000/svg" width="18.996" height="18.996" viewBox="0 0 18.996 18.996">
  <path id="blueprint" d="M18.134,0H.865A.863.863,0,0,0,0,.863V18.133A.863.863,0,0,0,.865,19h9.786a.863.863,0,1,0,0-1.727H1.729V9.786H5.758v3.166a.863.863,0,0,0,1.727,0V4.893a.863.863,0,0,0-1.727,0V8.059H1.729V1.727h8.634V6.044a.863.863,0,0,0,.863.863h4.029a.863.863,0,0,0,0-1.727H12.09V1.727h5.181V12.088H11.227a.863.863,0,1,0,0,1.727h6.044v3.454H15.832a.863.863,0,1,0,0,1.727h2.3A.863.863,0,0,0,19,18.133V.863A.863.863,0,0,0,18.134,0Z" transform="translate(-0.002)" fill="#37bdf2"/>
</svg>
