<svg xmlns="http://www.w3.org/2000/svg" xmlns:xlink="http://www.w3.org/1999/xlink" width="30" height="30">
  <defs>
    <filter id="Ellipse_28" x="0" y="0" width="28" height="28" filterUnits="userSpaceOnUse">
      <feOffset dy="3" input="SourceAlpha"/>
      <feGaussianBlur stdDeviation="3" result="blur"/>
      <feFlood flood-opacity="0.161"/>
      <feComposite operator="in" in2="blur"/>
      <feComposite in="SourceGraphic"/>
    </filter>
  </defs>
  <g id="Group_118" data-name="Group 118" transform="translate(-57 -24)">
    <g transform="matrix(1, 0, 0, 1, 57, 24)" filter="url(#Ellipse_28)">
      <circle id="Ellipse_28-2" data-name="Ellipse 28" cx="9" cy="9" r="9" transform="translate(9 6)" fill="#fff"/>
    </g>
    <path id="back" d="M1.376,6.631h6.61L6,4.642a.376.376,0,1,1,.531-.531L9.159,6.741a.376.376,0,0,1,0,.531L6.528,9.9A.376.376,0,1,1,6,9.372L7.986,7.383H1.376a.376.376,0,1,1,0-.752Z" transform="translate(69.866 31.993)" fill="#1a8ef1"/>
  </g>
</svg>
