<svg xmlns="http://www.w3.org/2000/svg" width="20" height="20" viewBox="0 0 20 20">
  <defs>
    <style>
      .cls-1 {
        fill: #3c5774;
      }
    </style>
  </defs>
  <g id="layer1" transform="translate(-2 -2)">
    <path id="path2171" class="cls-1" d="M12.286,2a4.286,4.286,0,1,0,4.286,4.286A4.3,4.3,0,0,0,12.286,2Zm0,1.429A2.857,2.857,0,1,1,9.429,6.286,2.846,2.846,0,0,1,12.286,3.429Z" transform="translate(-1.714)"/>
    <path id="path2173" class="cls-1" d="M8.429,16A6.43,6.43,0,0,0,2,22.429v1.429a.714.714,0,0,0,.714.714h7.748a.714.714,0,1,0,0-1.429H3.429v-.714a4.973,4.973,0,0,1,5-5H11.3A.714.714,0,1,0,11.3,16Z" transform="translate(0 -4)"/>
    <path id="path2175" class="cls-1" d="M20.991,16a.715.715,0,0,0-.707.724V17.5a3.555,3.555,0,0,0-1.253.526l-.548-.548a.691.691,0,0,0-.54-.229.722.722,0,0,0-.47,1.239l.551.551a3.553,3.553,0,0,0-.523,1.253h-.776a.714.714,0,1,0,0,1.429H17.5a3.555,3.555,0,0,0,.522,1.242l-.555.555a.714.714,0,1,0,1.01,1.01l.554-.554a3.555,3.555,0,0,0,1.25.525v.777a.714.714,0,1,0,1.428,0V24.5a3.553,3.553,0,0,0,1.249-.523l.558.558a.714.714,0,1,0,1.01-1.01l-.555-.555a3.554,3.554,0,0,0,.524-1.249h.778a.714.714,0,1,0,0-1.429H24.5a3.554,3.554,0,0,0-.526-1.26l.551-.551a.713.713,0,1,0-1.007-1.01l-.552.552a3.553,3.553,0,0,0-1.251-.525v-.776A.713.713,0,0,0,20.993,16ZM21,18.857A2.143,2.143,0,1,1,18.858,21,2.132,2.132,0,0,1,21,18.857Z" transform="translate(-4 -4)"/>
  </g>
</svg>
